<svg xmlns="http://www.w3.org/2000/svg" width="533" height="520" viewBox="0 0 533 520"><defs><clipPath id="r5nqa"><path d="M0 53.95h532.614v466.087H0z"/></clipPath><clipPath id="r5nqb"><path d="M0 520.045h532.615V0H0z"/></clipPath></defs><g><g><g><g/><g clip-path="url(#r5nqa)"><path fill="#fde6d6" d="M499.714 308.2c-1.65 2.65-3.295 5.255-5.05 7.85-15.35 23.055-34.4 45.2-55.495 65.555-.955.945-1.955 1.9-2.95 2.845a367.59 367.59 0 0 1-9.205 8.45 361.658 361.658 0 0 1-16.45 14.2c-2.95 2.5-5.995 4.955-9 7.35-34.895 27.605-72.195 51.755-108.95 69.95-11.395 5.705-22.795 10.8-34.045 15.2-58.705 23.255-113.35 28.705-151.05 5.65-12.005-7.3-22.255-17.5-30.405-30.945-1.3-2.155-2.6-4.305-3.9-6.45-12.045-20.155-23.55-40.4-33.65-60.755-2.4-4.75-4.645-9.445-6.845-14.2-36.65-78.75-50.605-158.45 1.345-236.85 20.2-30.495 53.355-54.245 93.15-71.05 11.355-4.845 23.2-9.05 35.505-12.7 6.05-1.9 12.145-3.55 18.395-5.045 7.855-2 15.85-3.75 23.95-5.255a406.43 406.43 0 0 1 18.65-3.15c2.6-.345 5.2-.695 7.8-1.05 18.45-2.345 37.15-3.65 55.755-3.795 2.445-.055 4.895-.055 7.3-.055 11.25.055 22.395.5 33.395 1.405 2.95.2 5.9.45 8.85.795 56.15 5.455 107.65 21.55 142.65 48.255 7.65 5.85 14.505 12.145 20.45 19a71.531 71.531 0 0 1 3.15 3.795c.35.4.655.8 1 1.205 7.25 9.095 13.05 18.5 17.405 28.1 22.25 48.45 9.245 101.895-21.755 151.695"/></g></g><g><path fill="#e8e5ea" d="M386.536 454.636c-13.49 14.14-23.095 34.36-8.585 46.34 16.205 13.375 49.63 10.27 66.91-14.965 11.045-16.12 16.89-41.605 4.655-55.9-10.475-12.24-46.43 7.175-62.98 24.525"/></g><g><path fill="#d8d5db" d="M317.57.55c.35 0 .6.295.6.65-.05.35-.3.6-.65.6h-.05c-3.3-.3-6.65-.5-10-.55-.35 0-.6-.3-.6-.65 0-.35.3-.6.65-.6 3.35.05 6.75.25 10.05.55m-20.09-.4c.3 0 .6.3.6.595a.584.584 0 0 1-.55.655c-3.353.2-6.706.5-10.01.9h-.05a.65.65 0 0 1-.65-.55c-.05-.35.2-.65.55-.7 3.303-.4 6.706-.7 10.06-.9h.05m40.05 3.45c.35.1.55.4.5.75-.1.3-.35.5-.65.5 0 0-.05 0-.1-.05-3.304-.7-6.607-1.3-9.86-1.8a.67.67 0 0 1-.55-.75c.05-.3.4-.55.75-.5 3.254.5 6.607 1.15 9.91 1.85m-60.1-1c.35-.05.65.2.75.5.05.35-.2.7-.5.75-3.253.645-6.556 1.4-9.76 2.25h-.15c-.3 0-.55-.2-.6-.45-.1-.35.1-.7.45-.75 3.203-.9 6.506-1.655 9.81-2.3m79.49 6.45c.35.1.5.445.4.8-.1.25-.35.4-.6.4h-.2c-3.15-1.1-6.4-2.1-9.55-3-.35-.1-.55-.45-.45-.75.1-.35.45-.55.8-.45 3.2.9 6.4 1.9 9.6 3M257.97 7.8c.3-.1.65.05.75.4.15.3-.05.65-.35.75-3.15 1.05-6.3 2.25-9.4 3.5-.05.05-.15.05-.25.05-.2 0-.45-.15-.55-.405-.15-.295 0-.645.35-.795 3.1-1.25 6.3-2.45 9.45-3.5m117.65 8.7c.35.15.5.495.35.85-.1.2-.35.35-.6.35-.1 0-.15 0-.25-.05-3-1.35-6.1-2.7-9.2-3.9-.35-.15-.5-.505-.35-.85.1-.3.5-.45.8-.35 3.1 1.25 6.2 2.6 9.25 3.95m-135.5-.8c.15.3 0 .65-.3.8-2.95 1.45-5.95 2.95-8.9 4.55-.1.05-.2.1-.3.1-.2 0-.45-.1-.55-.35-.15-.3-.05-.65.25-.85 2.95-1.605 6-3.15 8.95-4.55.35-.15.7-.05.85.3m153.5 9.95c.3.15.4.55.2.85-.1.2-.3.3-.55.3-.1 0-.2 0-.3-.1-2.9-1.65-5.85-3.2-8.8-4.705-.3-.195-.45-.545-.3-.845.15-.305.55-.45.85-.305 2.95 1.505 5.95 3.155 8.9 4.805m-171.15-.45c.15.3.1.7-.2.9a167.92 167.92 0 0 0-8.45 5.4c-.1.05-.2.1-.35.1-.2 0-.4-.1-.5-.25-.2-.3-.15-.7.15-.9 2.8-1.9 5.65-3.7 8.5-5.45.25-.15.65-.05.85.2m188.15 11.2c.3.2.35.55.15.85-.1.2-.3.25-.5.25-.1 0-.25 0-.35-.1-2.75-1.9-5.55-3.75-8.35-5.55-.3-.15-.4-.55-.2-.85.2-.3.6-.35.85-.2 2.85 1.8 5.65 3.65 8.4 5.6m-204.86 0c.2.3.15.695-.1.9-2.647 1.9-5.294 3.95-7.941 6.1-.15.1-.25.15-.4.15-.2 0-.35-.1-.5-.25-.199-.3-.149-.65.1-.9 2.698-2.1 5.345-4.2 7.992-6.1.25-.25.65-.15.85.1m220.8 12.3c.249.2.299.6.05.85-.1.15-.3.25-.45.25-.15 0-.3-.05-.4-.15-2.547-2.15-5.144-4.3-7.791-6.305-.25-.195-.3-.595-.1-.895.2-.25.6-.3.899-.1 2.597 2.05 5.244 4.15 7.791 6.35m-236.5.2c.2.25.15.65-.1.9-1.348 1.15-2.697 2.295-4.045 3.5l-1.798 1.65-1.648 1.5c-.1.1-.25.15-.4.15-.2 0-.35-.1-.5-.2-.199-.25-.199-.655.05-.9.3-.3.65-.55.95-.8.4-.4.799-.8 1.248-1.15 1.748-1.6 3.546-3.15 5.344-4.7.25-.25.65-.2.9.05m251.2 13.55c.199.2.199.6-.05.85-.1.15-.25.2-.4.2-.2 0-.35-.1-.45-.2-2.297-2.35-4.694-4.75-7.141-7a.687.687 0 0 1-.05-.9c.25-.25.65-.25.899 0 2.447 2.25 4.844 4.65 7.191 7.05m-266.09-.05c.25.25.25.65 0 .9-2.35 2.25-4.75 4.65-7.1 7.05-.15.15-.3.2-.45.2-.2 0-.35-.05-.45-.2-.25-.2-.25-.6 0-.855 2.4-2.445 4.8-4.845 7.15-7.095.25-.25.6-.25.85 0m279.39 15.15c.2.25.15.65-.1.85-.15.1-.25.15-.4.15-.199 0-.349-.1-.499-.25-2.047-2.6-4.244-5.2-6.391-7.65a.596.596 0 0 1 .05-.9c.25-.2.649-.2.849.05 2.197 2.5 4.394 5.1 6.491 7.75m-293.5-.85c.25.25.3.65.05.9-2.247 2.4-4.544 4.9-6.791 7.4-.1.15-.3.2-.45.2-.15 0-.3-.05-.4-.15-.249-.25-.299-.6-.05-.9 2.248-2.5 4.495-5 6.792-7.4.2-.25.6-.25.85-.05M466.32 93.85c.2.3.15.7-.15.85-.1.1-.25.1-.35.1-.2 0-.4-.1-.5-.25-1.8-2.8-3.75-5.55-5.7-8.25-.2-.3-.1-.7.15-.9.3-.2.7-.15.9.15 1.95 2.75 3.85 5.5 5.65 8.3m-318.65-2.2c.25.25.25.65.05.9-2.15 2.5-4.35 5.05-6.5 7.65-.1.15-.3.25-.45.25-.15 0-.3-.05-.4-.15-.3-.2-.3-.6-.1-.9 2.15-2.6 4.35-5.15 6.5-7.65.25-.25.6-.3.9-.1m328.85 19.6c.15.3 0 .7-.3.845-.1.055-.2.055-.3.055-.2 0-.4-.1-.55-.3-.55-1.105-1.15-2.2-1.7-3.25-1.05-1.9-2.05-3.75-3.1-5.55-.2-.3-.1-.65.2-.85.3-.15.7-.05.85.25 1.05 1.75 2.05 3.5 3 5.3.65 1.15 1.25 2.3 1.9 3.5m-341.7-4.155c.25.255.3.655.1.905-2.1 2.6-4.15 5.2-6.25 7.9l-.1.1c-.1.1-.25.15-.4.15a.54.54 0 0 1-.35-.15c-.3-.2-.35-.6-.1-.9.05-.1.15-.15.2-.25 2-2.55 3.95-5.15 6-7.65.25-.25.6-.3.9-.105m350.1 22.455c.05.045.05.1.05.15.05.3-.15.55-.4.65-.1.05-.15.05-.25.05-.25 0-.45-.15-.55-.4l-.15-.3c-.3-.85-.65-1.65-1.05-2.5-.3-.8-.65-1.65-1.05-2.5-.55-1.3-1.15-2.605-1.75-3.9-.15-.3 0-.65.3-.8.35-.15.7 0 .85.3.85 1.85 1.7 3.75 2.45 5.6.2.45.4.9.55 1.3.35.8.7 1.6 1 2.35M122.47 123c.25.2.3.6.1.85-2 2.65-4 5.35-5.95 8.05-.15.195-.35.3-.55.3a.54.54 0 0 1-.35-.15c-.25-.2-.35-.6-.15-.85 2-2.75 4-5.455 6-8.1.25-.25.6-.3.9-.1m-11.89 16.2c.25.2.35.55.15.85-1.953 2.7-3.906 5.45-5.808 8.195a.603.603 0 0 1-.501.255c-.15 0-.25 0-.4-.1-.251-.2-.351-.6-.15-.85 1.952-2.8 3.905-5.5 5.807-8.2.2-.3.601-.35.902-.15m380.24 7.15c.25.745.5 1.5.7 2.25.1.35-.1.7-.4.8h-.2c-.25 0-.5-.15-.6-.45-.1-.4-.25-.75-.35-1.15-.85-2.85-1.75-5.65-2.7-8.4-.1-.3.05-.65.4-.8.3-.1.7.05.8.4.8 2.4 1.6 4.85 2.35 7.35m-391.8 9.3c.3.195.35.6.2.85l-.25.35c-1.9 2.745-3.75 5.55-5.6 8.35-.1.2-.3.3-.5.3-.1 0-.25-.05-.35-.1-.3-.2-.35-.6-.15-.905 1.8-2.795 3.7-5.595 5.55-8.345l.25-.35c.2-.3.6-.35.85-.15m397.2 12.2c0 .1.05.25.05.35.05.35-.15.65-.5.75h-.1c-.3 0-.55-.2-.6-.5-.05-.205-.1-.45-.15-.65-.6-3.05-1.25-6.1-2-9.15-.1-.35.15-.7.45-.75.35-.1.7.1.75.445.75 3.205 1.5 6.355 2.05 9.505h.05M87.76 172.8c.3.2.4.545.2.85-1.747 2.85-3.494 5.7-5.192 8.6-.1.2-.3.3-.549.3-.1 0-.2-.05-.3-.1-.299-.2-.399-.55-.2-.85 1.698-2.9 3.446-5.755 5.193-8.6.2-.3.599-.4.848-.2m410.16 5.35c.5 3.35.9 6.7 1.2 10.05.05.35-.2.65-.55.65h-.05c-.35 0-.6-.2-.65-.55-.3-3.3-.7-6.65-1.15-9.955-.05-.345.15-.645.5-.695.35-.1.65.15.7.5m-420.4 11.9c.3.2.4.55.25.85-1.7 2.95-3.3 5.95-4.85 8.8-.1.25-.35.35-.55.35-.1 0-.2-.05-.3-.1-.3-.15-.4-.5-.25-.8 1.55-2.9 3.15-5.905 4.85-8.85.15-.3.55-.4.85-.25m422.3 8.195c.15 3.305.25 6.705.25 10.055 0 .35-.3.65-.65.65-.3 0-.6-.3-.6-.65 0-3.35-.1-6.7-.25-10 0-.35.25-.65.6-.65s.65.25.65.595M68.02 207.8c.3.145.45.5.3.85-1.5 2.95-3 5.995-4.45 9-.1.25-.3.35-.55.35-.1 0-.15 0-.25-.055-.3-.145-.45-.495-.3-.85 1.4-2.995 2.9-6.045 4.4-9.045.15-.305.55-.4.85-.25m431.2 9.9c.35.045.65.35.6.645-.15 3.405-.35 6.755-.7 10.05 0 .355-.3.6-.6.6h-.05c-.35-.045-.6-.345-.55-.695.3-3.3.5-6.65.65-10 .05-.355.35-.555.65-.6m-439.85 8.25c.35.145.5.5.35.85-1.35 3.045-2.7 6.145-3.95 9.2-.1.25-.3.4-.55.4-.1 0-.15 0-.25-.05-.3-.1-.45-.505-.35-.8 1.25-3.1 2.6-6.2 3.95-9.255.15-.345.5-.495.8-.345m438.1 11.75c.35.045.55.4.55.75-.45 3.245-1 6.595-1.6 9.945-.1.305-.35.505-.65.505h-.1c-.35-.105-.55-.4-.5-.755.6-3.3 1.15-6.595 1.6-9.895.05-.35.4-.6.7-.55m-445.7 6.85c.3.095.45.495.35.8-1.15 3.1-2.3 6.3-3.4 9.45-.1.245-.3.4-.6.4h-.2c-.3-.155-.5-.5-.35-.805a243.01 243.01 0 0 1 3.4-9.495c.1-.305.45-.455.8-.35m442.1 12.95c.35.045.55.4.5.75-.75 3.2-1.6 6.5-2.5 9.75-.05.3-.3.5-.6.5-.05 0-.1-.05-.15-.05-.35-.105-.5-.45-.45-.75.9-3.305 1.75-6.55 2.45-9.755.1-.295.4-.545.75-.445m-448.65 6.05c.35.1.55.445.45.8-1 3.195-1.95 6.45-2.75 9.645-.1.255-.35.45-.6.45-.1 0-.15 0-.2-.05-.3-.045-.5-.4-.45-.745.85-3.205 1.8-6.45 2.8-9.655.1-.345.45-.545.75-.445m443.35 13.3c.3.15.5.495.35.8-1.05 3.1-2.3 6.25-3.65 9.4-.1.25-.35.4-.55.4-.1 0-.2-.05-.25-.05-.35-.15-.5-.505-.35-.85 1.35-3.1 2.6-6.25 3.65-9.3.1-.355.45-.5.8-.4m-448.55 6.095c.35.105.55.4.5.755-.75 3.3-1.4 6.6-2 9.85-.05.3-.3.5-.6.5h-.15c-.3-.1-.55-.4-.5-.75.6-3.255 1.3-6.55 2-9.85.1-.35.4-.55.75-.505M480.67 295.3c.3.145.45.546.3.85-1.5 2.904-3.15 5.857-4.95 8.81-.1.2-.3.295-.55.295-.1 0-.2 0-.3-.045-.3-.2-.4-.606-.2-.9 1.75-2.904 3.4-5.857 4.85-8.71.2-.3.55-.4.85-.3m-444.25 7.445c.35 0 .6.355.55.705-.45 3.3-.8 6.65-1.1 9.945 0 .305-.3.555-.6.555h-.05c-.35 0-.6-.3-.6-.65.3-3.3.65-6.65 1.1-10.05.05-.35.3-.6.7-.505m434 9.855c.3.145.35.545.15.85-1.85 2.75-3.85 5.5-5.85 8.15-.15.2-.35.25-.5.25-.15 0-.3-.05-.4-.1-.25-.2-.35-.6-.1-.905 2-2.65 4-5.4 5.85-8.1.2-.295.55-.345.85-.145M35.27 327.85c0 1.85.05 3.7.1 5.545 0 .355-.25.6-.6.655h-.05c-.3 0-.6-.3-.6-.6-.05-1.85-.1-3.7-.1-5.6 0-1.5 0-3.005.05-4.505 0-.345.3-.6.65-.6.35 0 .6.305.6.65-.05 1.505-.05 3.005-.05 4.455m423.04.745c.25.2.3.6.1.85a221.48 221.48 0 0 1-6.691 7.605c-.1.095-.25.2-.45.2a.55.55 0 0 1-.4-.155c-.249-.245-.299-.645-.05-.895 2.298-2.5 4.545-5.05 6.592-7.55.25-.255.65-.305.9-.055M444.77 343.45c.25.2.25.6 0 .85-2.35 2.35-4.8 4.695-7.25 6.995a.777.777 0 0 1-.45.155c-.15 0-.35-.05-.45-.2-.25-.25-.2-.65.05-.85 2.45-2.3 4.9-4.65 7.2-6.95a.625.625 0 0 1 .9 0m-408.75-.105c.35 3.405.85 6.7 1.4 9.955.05.35-.15.65-.5.695h-.1c-.3 0-.6-.2-.65-.495-.55-3.255-1-6.605-1.35-10-.05-.355.2-.65.55-.7.35-.055.65.25.65.545m394.05 13.75c.2.305.2.65-.1.905-2.4 2.1-5 4.3-7.7 6.445-.15.105-.25.15-.4.15-.2 0-.35-.095-.5-.245-.2-.25-.15-.65.1-.85 2.7-2.205 5.25-4.35 7.7-6.45.25-.2.65-.2.9.045m-390.5 5.955c.85 3.245 1.8 6.45 2.9 9.55.15.345-.05.7-.35.795-.1.055-.15.055-.2.055-.3 0-.5-.15-.6-.45-1.1-3.1-2.1-6.35-3-9.655a.706.706 0 0 1 .45-.745c.35-.1.7.1.8.45m374.85 6.75c.25.244.2.644-.1.843-2.65 2.003-5.4 3.995-8.1 5.947-.15.095-.25.095-.4.095-.2 0-.35-.095-.5-.245-.2-.3-.15-.649.15-.848 2.7-1.948 5.45-3.945 8.1-5.947.25-.2.65-.145.85.155m-16.3 11.8c.1.25 0 .545-.2.7-1.1.75-2.2 1.45-3.3 2.145-1.7 1.155-3.4 2.25-5.15 3.355-.1.05-.25.1-.35.1-.2 0-.4-.1-.5-.3-.2-.3-.1-.705.2-.85 1.15-.75 2.35-1.505 3.5-2.305 1.45-.895 2.95-1.9 4.35-2.845.2-.105.35-.25.55-.35.25-.155.65-.1.85.2 0 .045.05.1.05.15m-347.25 9.095c.15.305.05.705-.25.855-.1.05-.2.1-.3.1-.25 0-.45-.1-.55-.3-1.7-2.9-3.25-5.95-4.65-8.95-.15-.35 0-.705.3-.85.3-.15.7 0 .85.3 1.35 2.995 2.9 6 4.6 8.845m330.2 1.505c.15.25.15.5-.05.7-.05.045-.1.1-.15.15-2.8 1.65-5.75 3.35-8.7 5.05-.1.045-.2.045-.3.045-.25 0-.45-.095-.55-.295-.2-.305-.1-.705.2-.85 2.45-1.355 4.8-2.7 7.1-4.1.55-.3 1.05-.65 1.6-.955.3-.145.7-.05.85.255m-17.5 9.85c.15.295.05.695-.25.85-2.65 1.4-5.35 2.85-8.15 4.195-.25.155-.55.25-.8.405-.1.045-.2.1-.3.1-.2 0-.45-.15-.55-.35 0-.05-.05-.105 0-.155-.1-.245 0-.545.3-.695 3-1.5 6.05-3.055 8.9-4.6.3-.15.7-.05.85.25m-301.1 4.836c.05.05.1.105.1.2.1.25.05.504-.15.704a.8.8 0 0 1-.45.145.717.717 0 0 1-.45-.2c-.2-.2-.35-.444-.55-.65-2-2.341-3.95-4.789-5.7-7.286-.2-.25-.15-.65.1-.85.3-.199.7-.154.9.15 1.9 2.648 4 5.29 6.2 7.787m283.15 4.209c.15.305 0 .655-.3.8-2.9 1.405-5.9 2.75-9.2 4.2a.361.361 0 0 1-.25.105c-.2 0-.45-.15-.55-.4-.15-.3 0-.7.3-.8 3.3-1.45 6.25-2.855 9.15-4.2.3-.155.7-.05.85.295m-268.75 9.6c.25.255.3.655.1.905-.15.15-.3.25-.5.25a.55.55 0 0 1-.4-.155c-.9-.695-1.75-1.45-2.6-2.195-1.75-1.45-3.4-2.95-5-4.455a.628.628 0 0 1 0-.895c.25-.25.65-.25.9 0 1.35 1.25 2.7 2.545 4.15 3.795 1.05.905 2.2 1.855 3.35 2.75m250.35-1.395c.15.295 0 .65-.35.8-3 1.25-6.15 2.55-9.3 3.8-.1 0-.2.05-.25.05-.25 0-.5-.155-.6-.4-.1-.355.05-.7.35-.85 3.15-1.205 6.3-2.5 9.35-3.75.3-.155.65 0 .8.35m-19.5 6.995c.25-.145.65 0 .8.355.1.35-.05.695-.4.8-3.15 1.145-6.3 2.3-9.45 3.35-.1.045-.15.045-.2.045-.3 0-.5-.15-.6-.445-.1-.3.05-.65.4-.755 3.1-1.095 6.3-2.195 9.45-3.35M93.32 432c.3.145.45.545.25.85-.1.2-.3.295-.55.295-.1 0-.2 0-.3-.045l-.4-.25c-2.8-1.65-5.55-3.405-8.15-5.15-.25-.2-.35-.605-.15-.85.2-.3.6-.4.85-.2 2.6 1.8 5.3 3.5 8.1 5.1l.35.25m195.41.745c.35-.095.7.105.8.4.1.355-.1.705-.4.805-.701.245-1.402.445-2.152.695-2.403.755-4.955 1.505-7.457 2.25h-.2c-.25 0-.5-.145-.601-.445-.1-.355.1-.65.45-.755 2.553-.745 5.105-1.545 7.557-2.3.701-.2 1.352-.45 2.002-.65m-177.309 7.7c.35.155.5.505.4.805-.1.245-.35.4-.6.4h-.25c-.95-.355-1.9-.7-2.8-1.1-2.2-.905-4.4-1.8-6.5-2.805-.3-.145-.45-.545-.3-.85.15-.295.55-.445.85-.295 1.95.9 3.9 1.795 5.95 2.595 1.1.45 2.15.85 3.25 1.25m158.06-2.1c.35-.045.7.155.8.45.05.355-.15.705-.45.8-3.153.805-6.456 1.655-9.76 2.455-.05.045-.1.045-.15.045-.3 0-.55-.2-.6-.495-.1-.35.1-.65.45-.755 3.303-.8 6.556-1.65 9.71-2.5m-19.51 4.755c.35-.1.65.15.75.45.05.35-.15.7-.5.75-1 .25-2 .45-3 .65-2.3.495-4.6.945-6.85 1.345h-.1c-.3 0-.6-.2-.65-.495-.05-.355.15-.65.5-.7h.1c3.15-.6 6.5-1.305 9.75-2m-119.34 3.05c.3.1.5.45.45.745-.05.155-.1.305-.25.355l-.05.05c-.1.045-.2.1-.3.1h-.15c-.15-.055-.301-.055-.451-.1-3.153-.75-6.256-1.605-9.309-2.455a.637.637 0 0 1-.45-.795c.1-.35.45-.5.8-.4 3.154.9 6.407 1.75 9.71 2.5m99.65.7c.35-.05.65.15.7.495.05.355-.2.655-.5.705-3.403.545-6.756 1.05-10.01 1.5h-.05c-.3 0-.6-.25-.65-.555-.05-.345.2-.65.55-.695 3.253-.45 6.556-.955 9.96-1.45m-79.95 2.7c.35.045.6.35.55.695-.05.355-.3.555-.6.555h-.1c-3.354-.4-6.707-.85-9.96-1.45-.35-.05-.6-.355-.55-.7.1-.35.4-.55.75-.505 3.254.555 6.607 1.05 9.91 1.405m60.04-.05c.35-.055.65.2.7.545 0 .355-.25.65-.6.705-3.35.345-6.7.65-10 .9h-.05c-.35 0-.6-.25-.65-.6 0-.355.25-.65.6-.65 3.3-.25 6.65-.555 10-.9m-40.05 1.55c.35 0 .6.3.6.645 0 .355-.3.605-.65.605-3.4-.1-6.8-.3-10.05-.5a.702.702 0 0 1-.6-.705c.05-.345.25-.595.7-.545 3.2.2 6.6.4 10 .5m20.05-.1c.3 0 .6.3.65.6 0 .345-.25.65-.6.65-3.4.145-6.75.25-10.1.25-.35 0-.6-.305-.6-.6 0-.355.25-.65.6-.65 3.3 0 6.7-.105 10.05-.25"/></g><g><path fill="#fff" d="M504.77 127.2l-.7 1.2-.4.65-4.5 7.85-16.305 28.2-2.1 3.6-59.645 103.35-12.9 22.3-12.855-22.3-35.745-61.9-5.505-9.5-9.4-16.3-32.995-57.15zm-4.35 2.5h-184.4l28.695 49.7 12.255 21.25 5.5 9.5 35.75 61.9 10 17.3 10-17.3 60.3-104.4 2.045-3.6 9.405-16.25.85-1.45 6.5-11.3z"/></g><g><path fill="#d1cdd3" d="M342.82 382.1c.15.55-.1 1.355-.65 2.35-1.25 2.35-4.245 5.7-7.395 8.45-.655.555-1.305 1.1-1.955 1.55-1.9 1.55-3.75 2.755-5.2 3.2-5.1 1.7-27.15-1.2-32.5-4.1-.345-.2-.6-.4-.85-.65-2.195.15-5.45.2-9.4 0-1.8-.095-3.75-.25-5.85-.55-4.95-.55-10.6-1.7-16.7-3.65-3-.895-6.15-2.05-9.35-3.45-3-1.35-6.1-2.9-9.2-4.7-.75-.4-1.3-.9-1.95-1.295.6 4.6 1.2 9.145 1.85 13.645.2 1.25.4 2.5.55 3.7.55 3.55 1.1 7.055 1.7 10.5 2.35 13.55 5.05 26.3 8.3 37.7.3 1.2.65 2.405 1 3.55-1.05.15-2.1.305-3.1.45.25 1.15.45 2.355.65 3.55 2.5 13.5 4.4 30.15 5.8 47.25-58.7 23.25-113.35 28.7-151.05 5.65-12-7.3-22.25-17.5-30.4-30.95l-3.9-6.45c.25-7.05.55-13 .8-17.05-.95-.1-1.45-.1-1.45-.1 0-8.15.35-18.85.9-31.2.05-.5.05-1 .05-1.55.2-3.5.4-7.1.65-10.85.2-4.6.5-9.295.8-14.2.45-7.1.95-14.5 1.5-22-12.2-3.25-22.4-6.75-28.15-10.25-7.5-4.55-10.35-10.9-10.15-17.15-.1-1.25-.1-2.6.2-4 2.85-9.45 12.65-37.6 23.75-65.55l-12.3-4.2s35.95-64.05 57.05-78.15c.1-.05.15-.1.25-.15 7.45-6.9 18.2-11.35 34.3-13.15.1-13.35-.95-35.9-2.05-53.15-5.25-1.2-8.8-5.55-10.8-9.15-.25-.4-.5-.8-.65-1.15-.8-1.55-1.25-2.85-1.45-3.5-1.1-4.4-.05-8.05 2.1-10.4-.45-3.65-1.1-9.65-1.35-15.95-.5-11.6.15-24.3 5.4-25.45-.05-.15-.15-.25-.2-.35-1.35-4.15 1.1-8.75 1.2-8.9l2.2 1.15c0 .05-2 3.85-1.05 6.95 4.2-4.65 18.35-6.15 33.2-5.3.85 0 1.75.1 2.6.15 3.05.25 6.1.55 9.1 1 1 .1 1.95.25 2.9.45.5.05 1.05.15 1.55.25 3.25.55 6.35 1.25 9.2 2.05 4.9 1.35 9 3.05 11.75 5 .9.6 1.6 1.25 2.2 1.9 2.5 2.9 2.9 4.95 1.8 6.3-.65.75-1.7 1.3-3.1 1.7.6 4.2.85 7.85.95 11.2.3.8.6 1.65.9 2.5.25.75.5 1.55.75 2.35.05.05.1.05.15.1.3.25.6.45.9.7 1.1 1 2.1 2.25 2.85 3.9l-2.25 1.05c-.05-.1-.1-.15-.15-.25.6 2.55 1.15 5.2 1.55 8 .6 4.15 1.25 8.3 1.9 12.35.2 1.55.4 3.1.6 4.6.45 3.1.85 6.15 1.1 9.05.1.9.2 1.75.2 2.6 1.05 13.2-.2 24.15-8.1 29.65-1.5 1.1-3.3 2-5.35 2.6-2.6.85-5.7 1.3-9.3 1.35.1 3.5.3 6.9.6 10.1.15 1.25.3 2.5.5 3.65.15 1.2.35 2.4.6 3.5 13.35 3.2 23.4 8.6 29.75 15.95.3.3.65.6.95.95 3.55 3.45 7 8.755 10.25 15.1 4.1 7.95 7.95 17.605 11.35 27.25.25.75.5 1.55.8 2.3.25.85.55 1.65.8 2.5 1.4 4.15 2.7 8.3 3.9 12.255.9 2.945 1.7 5.8 2.5 8.495 3.85 13.555 6.1 23.555 6.1 23.555l-6.1 1.445-2.5.6-1.8.455c.6 2.395 1.2 4.745 1.8 7.145.05.25.15.55.2.805.8 3.1 1.55 6.25 2.3 9.295 3.85 15.65 7.1 30.15 8.55 39.75 4.3 3.55 7.45 9.1 12.1 14.255 4.7 5.195 11.05 9.895 21.8 11.745.05 0 .05.05.1.05 4.205-3.3 12-7.195 16.75-8.645.65-.155 1.205-.305 1.7-.405.4-.1.755-.15 1.05-.15 2.005-.4 2.3-.25 3.5.5.45.35 1.05.8 2 1.35 3.9 2.3 8 4.45 11.55 6.55 4.4 2.555 7.85 5 8.85 7.6.1.155.15.35.2.5"/></g><g><path fill="#ffad69" d="M357.67 367.43c-3.565-2.135-2.525-2.405-6.555-1.665-4.35.805-13.71 5.295-18.445 9.035-.05-.005-.085-.03-.135-.04-21.44-3.675-25.21-18.84-33.88-26.02-4.805-31.48-29.015-117.15-29.015-117.15l-36.48 13.565c5.315 36.095 26.705 104.745 32.255 120.235a15.12 15.12 0 0 0 3.4 4.575c1.82 3.845 5.09 7.555 10.375 10.61 21.87 12.645 42.57 12.82 50.49 12.315.255.255.545.475.875.66 5.365 2.93 27.375 5.8 32.515 4.115 5.225-1.715 15.925-12.545 15.155-15.545-1.25-4.9-11.62-9.34-20.555-14.69"/></g><g><path fill="#377adb" d="M236.904 208.445c-10.3 23.15-6.515 96.505-6.515 96.505l65.825-15.69s-32.15-141.885-59.31-80.815"/></g><g><path fill="#232323" d="M292.61 484.4c-11.395 5.705-22.8 10.8-34.05 15.2-58.7 23.25-113.345 28.7-151.05 5.65.55-21.65 1.3-44.2 1.9-54.45.1-1.2.2-2.25.25-3.1l20.2-.4h.9l.05-.05 109.3-2.145h.105l6.995-.155 7-.15 32.3-.65c.355 1.5.7 3.1 1 4.705 2.1 10.2 3.75 22.445 5.1 35.545"/></g><g><path fill="#4d8dff" d="M188.555 177.433c-39.27 1.295-52.545 14.55-59.315 37.475-7.69 26.03-21.23 183.25-21.23 235.785 0 0 117.525 8.33 182.63-2.345-20.415-68.955-22.62-192.935-23.03-229.875-.305-27.71-29.275-42.685-79.055-41.04"/></g><g/><g clip-path="url(#r5nqb)"><path fill="#fff" d="M192.47 242.45h62.2v74.35h-62.2zm2.5 71.85h57.2v-69.35h-57.2z"/></g><g clip-path="url(#r5nqb)"><path fill="#232323" d="M223.142 113.142c3.865-2.915 24.045-.27 18.235-41.355-2.12-14.99-16.195-4.985-26.16-2.985-9.97 2-3.63 45.08-3.63 45.08z"/></g><g clip-path="url(#r5nqb)"><path fill="#ffad69" d="M172.9 103.3c1.675 10.89 5.025 69.805 3.63 83.49-1.395 13.685 64.785 17.59 56.125 2.515-8.655-15.08-2.51-65.065-2.51-65.065z"/></g><g clip-path="url(#r5nqb)"><path fill="#d88344" d="M177.481 104.96l52.655 19.28s-3.555 29.11-1.41 49.61c-40.15-3.105-50.455-53.815-51.13-63.58-.115-1.84-.17-3.615-.115-5.31"/></g><g clip-path="url(#r5nqb)"><path fill="#ffad69" d="M247.037 101.445c4.88 33.635 13.165 67.175-27.605 61.65-40.775-5.52-47.105-57.795-46.99-67.65.635-52.615 65-60.14 74.595 6"/></g><g clip-path="url(#r5nqb)"><path fill="#232323" d="M242.696 63.89c-9.595-11.145-63.54-15.35-72.47-5.48-.98-3.1 1.02-6.91 1.04-6.945l-2.2-1.185c-.105.19-2.54 4.785-1.215 8.915.045.13.155.22.2.35-9.87 2.175-3.57 45.055-3.57 45.055l11.555-.74c3.865-2.91 17.28-23.4 20.235-35.765 21.125 3.575 58.62 9.96 46.425-4.205"/></g><g clip-path="url(#r5nqb)"><path fill="#ffad69" d="M236.955 368.61c-4.13.23-20.155 3.015-25.78 1.71-18.905-4.415-67.625-26.27-93.85-38.485 16.135-35.025 39.885-97.015 39.885-97.015l-37.345-10.96c-17.33 32.105-41.265 99.91-46.085 115.645-.27 1.41-.29 2.735-.205 4.005-.17 6.225 2.68 12.58 10.165 17.14 20.76 12.645 99.075 24.915 120.765 27.31.4.81.93 1.545 1.79 2.03 5.305 2.98 29.445 5.21 34.41 6.09 6.225 1.1 25.12 2.7 24.305.17-1.335-4.145-8.34-28.745-28.055-27.64"/></g><g clip-path="url(#r5nqb)"><path fill="#4d8dff" d="M142.285 191.62C121.22 205.7 85.26 269.745 85.26 269.745l64.035 21.875s48.56-137.14-7.01-100"/></g><g clip-path="url(#r5nqb)"><path fill="#232323" d="M212.707 99.775c-.13 1.64.755 3.045 1.98 3.145 1.23.095 2.33-1.15 2.465-2.79.135-1.635-.755-3.045-1.985-3.145-1.225-.095-2.33 1.15-2.46 2.79"/></g><g clip-path="url(#r5nqb)"><path fill="#232323" d="M238.678 100.465c-.13 1.64.755 3.045 1.98 3.145 1.23.095 2.33-1.15 2.465-2.79.13-1.635-.76-3.045-1.985-3.145-1.225-.095-2.33 1.15-2.46 2.79"/></g><g clip-path="url(#r5nqb)"><path fill="#232323" d="M206.325 90.58l-2.095-1.364c4.42-6.77 11.84-5.2 12.16-5.13l-.545 2.44c-.24-.05-6.065-1.24-9.52 4.055"/></g><g clip-path="url(#r5nqb)"><path fill="#232323" d="M245.643 93.692c-2.647-5.755-8.593-5.44-8.828-5.415l-.175-2.495c.32-.02 7.897-.485 11.275 6.865z"/></g><g clip-path="url(#r5nqb)"><path fill="#232323" d="M221.064 130.75c-4.227 0-12.356-1.2-17.404-9.59l2.141-1.29c6.118 10.17 17.094 8.315 17.559 8.23l.455 2.455c-.04.01-1.096.195-2.751.195"/></g><g clip-path="url(#r5nqb)"><path fill="#d88344" d="M240.28 119.365l-12.14-.165.035-2.501 8.755.12-5.405-18.444 2.395-.705z"/></g><g clip-path="url(#r5nqb)"><path fill="#ffad69" d="M182.786 107.582c3.68 8.3 8.295 16.33-3.27 17.82-11.565 1.495-16.945-11.49-17.6-14.035-3.5-13.575 13.625-20.105 20.87-3.785"/></g><g clip-path="url(#r5nqb)"><path fill="#fff" d="M495.89 407.08H17.45c-3.905 0-7.1-3.195-7.1-7.1s3.195-7.1 7.1-7.1h478.44c3.905 0 7.1 3.195 7.1 7.1s-3.195 7.1-7.1 7.1"/></g><g clip-path="url(#r5nqb)"><path fill="#d8d5db" d="M194.51 407.08H13.9c-3.905 0-7.1-3.195-7.1-7.1s3.195-7.1 7.1-7.1h180.61c3.905 0 7.1 3.195 7.1 7.1s-3.195 7.1-7.1 7.1"/></g><g clip-path="url(#r5nqb)"><path fill="#2b2b2b" d="M472.465 381.615h-148.41c-5.665 0-9.425-4.6-8.395-10.27l16.185-89.005c1.035-5.675 6.465-10.27 12.14-10.27H492.39c5.67 0 9.43 4.595 8.4 10.27l-16.185 89.005c-1.035 5.67-6.465 10.27-12.14 10.27"/></g><g clip-path="url(#r5nqb)"><path fill="#232323" d="M476.095 381.615h-148.41c-5.665 0-9.425-4.6-8.395-10.27l16.185-89.005c1.03-5.675 6.465-10.27 12.135-10.27h148.405c5.675 0 9.435 4.595 8.405 10.27l-16.19 89.005c-1.03 5.67-6.465 10.27-12.135 10.27"/></g><g clip-path="url(#r5nqb)"><path fill="#fff" d="M436.12 306.35l-7.5 40.995h-41l7.45-40.995zm-2.995 2.5H397.17l-6.545 35.994h35.945z"/></g><g clip-path="url(#r5nqb)"><path fill="#232323" d="M298.03 384.46c0 4.635 3.795 8.43 8.435 8.43H461.71c4.64 0 8.435-3.795 8.435-8.43z"/></g><g clip-path="url(#r5nqb)"><path fill="#2b2b2b" d="M252.92 384.46c0 4.635 3.79 8.43 8.43 8.43h61.05c4.64 0 8.435-3.795 8.435-8.43z"/></g><g clip-path="url(#r5nqb)"><path fill="#377adb" d="M423.445 108.23c-5.255 0-9.515 4.265-9.515 9.52h19.035c0-5.255-4.26-9.52-9.52-9.52"/></g><g clip-path="url(#r5nqb)"><path fill="#4d8dff" d="M423.46 108.23v92.43c0 5.265-4.27 9.49-9.535 9.49H344.72v-92.38c0-5.27 4.265-9.54 9.495-9.54z"/></g><g clip-path="url(#r5nqb)"><path fill="#6ea9ff" d="M404.43 200.66l-69.24-.01a9.525 9.525 0 0 0 9.525 9.525l69.205-.015c-5.26 0-9.49-4.23-9.49-9.5"/></g><g clip-path="url(#r5nqb)"><path fill="#fff" d="M355.07 123.75h58.05v-2.5h-58.05z"/></g><g clip-path="url(#r5nqb)"><path fill="#fff" d="M355.07 133.22h58.05v-2.5h-58.05z"/></g><g clip-path="url(#r5nqb)"><path fill="#fff" d="M355.07 142.69h58.05v-2.5h-58.05z"/></g><g clip-path="url(#r5nqb)"><path fill="#fff" d="M355.07 152.16h58.05v-2.5h-58.05z"/></g><g clip-path="url(#r5nqb)"><path fill="#fff" d="M355.07 161.63h58.05v-2.5h-58.05z"/></g><g clip-path="url(#r5nqb)"><path fill="#fff" d="M355.07 171.1h58.05v-2.5h-58.05z"/></g><g clip-path="url(#r5nqb)"><path fill="#fff" d="M355.07 180.57h58.05v-2.5h-58.05z"/></g><g clip-path="url(#r5nqb)"><path fill="#fff" d="M355.07 190.04h58.05v-2.5h-58.05z"/></g><g clip-path="url(#r5nqb)"><path fill="#ffc84d" d="M520.183 157.896c-13.25 13.25-34.74 13.25-47.995 0-13.25-13.255-13.25-34.74 0-47.995 13.255-13.255 34.745-13.255 47.995 0s13.25 34.74 0 47.995"/></g><g clip-path="url(#r5nqb)"><path fill="#232323" d="M496.185 133.9l26.965 26.965c-14.79 14.795-39.145 14.795-53.935 0a38.18 38.18 0 0 1-11.025-23.64z"/></g><g clip-path="url(#r5nqb)"><path fill="#fff" d="M496.187 133.895l-37.88 4.415c-.5-4.275-.27-8.605.68-12.81.945-4.2 2.595-8.21 4.885-11.86z"/></g><g clip-path="url(#r5nqb)"><path fill="#232323" d="M330.07 84.805h-28.75c-3.71 0-6.75-3.036-6.75-6.752V49.302c0-3.711 3.04-6.752 6.75-6.752h28.75c3.71 0 6.75 3.04 6.75 6.752v28.751c0 3.716-3.04 6.752-6.75 6.752"/></g><g clip-path="url(#r5nqb)"><path fill="#ff4e4a" d="M321.67 93.215h-28.75c-3.71 0-6.75-3.036-6.75-6.752V57.712c0-3.711 3.04-6.752 6.75-6.752h28.75c3.71 0 6.75 3.04 6.75 6.752v28.751c0 3.716-3.04 6.752-6.75 6.752"/></g></g></g></svg>