<svg xmlns="http://www.w3.org/2000/svg" width="37" height="37" viewBox="0 0 37 37"><defs><clipPath id="6lt5a"><path fill="#fff" d="M1 14.854C1 7.203 7.203 1 14.854 1h7.292C29.797 1 36 7.203 36 14.854v7.292C36 29.797 29.797 36 22.146 36h-7.292C7.203 36 1 29.797 1 22.146z"/></clipPath></defs><g><g><g><path fill="#f90" d="M1 14.854C1 7.203 7.203 1 14.854 1h7.292C29.797 1 36 7.203 36 14.854v7.292C36 29.797 29.797 36 22.146 36h-7.292C7.203 36 1 29.797 1 22.146z"/><path fill="none" stroke="#fff" stroke-miterlimit="50" stroke-width="5.83" d="M1 14.854C1 7.203 7.203 1 14.854 1h7.292C29.797 1 36 7.203 36 14.854v7.292C36 29.797 29.797 36 22.146 36h-7.292C7.203 36 1 29.797 1 22.146z" clip-path="url(&quot;#6lt5a&quot;)"/><path fill="none" stroke="#f90" stroke-miterlimit="50" stroke-width=".73" d="M1 14.854C1 7.203 7.203 1 14.854 1h7.292C29.797 1 36 7.203 36 14.854v7.292C36 29.797 29.797 36 22.146 36h-7.292C7.203 36 1 29.797 1 22.146z"/></g><g><g><path fill="#fff" d="M26.766 13.24a.788.788 0 0 0-1.132 0l-9.584 9.788-3.684-3.763a.788.788 0 0 0-1.132 0 .83.83 0 0 0 0 1.156l4.25 4.34a.788.788 0 0 0 1.132 0l10.15-10.366a.83.83 0 0 0 0-1.156z"/></g></g></g></g></svg>