<svg xmlns="http://www.w3.org/2000/svg" width="605" height="495" viewBox="0 0 605 495"><defs><clipPath id="qmyea"><path d="M434.47 35.21h169.886v83.235H434.47z"/></clipPath></defs><g><g><g><path fill="#ffe5d2" d="M330.352 465.954C207.094 453.421 105.072 363.113 60.37 248 15.667 132.887 183.974 34.828 305.198 29.21 426.42 23.592 520 131.297 520 253.974s-66.39 224.513-189.648 211.98z"/></g><g><g><path fill="#fff" d="M482.004 343.693c.101-.059.73.771 1.659 2.405.933 1.628 2.094 4.101 3.173 7.293 2.212 6.36 3.6 15.75 2.777 25.99-.816 10.24-3.183 19.228-5.009 25.625-1.868 6.4-3.243 10.285-3.48 10.22-.262-.072.666-4.092 2.2-10.555 1.493-6.462 3.624-15.402 4.422-25.431.803-10.026-.339-19.152-2.174-25.46-1.783-6.341-3.862-9.934-3.568-10.087"/></g><g><path fill="#fff" d="M488.306 292.451c.117-.051.878 1.34 2.146 3.906a360.284 360.284 0 0 1 5.155 10.97c4.18 9.332 9.804 22.394 13.884 37.559 2.006 7.585 3.372 14.96 4.064 21.732.698 6.771.769 12.924.42 18.058-.338 5.137-.986 9.26-1.61 12.062-.618 2.809-1.107 4.321-1.217 4.297-.346-.067 1.181-6.25 1.505-16.42.404-10.15-.929-24.252-4.972-39.247-4.033-15-9.428-28.069-13.29-37.516-1.944-4.727-3.516-8.553-4.605-11.198-1.063-2.656-1.598-4.15-1.48-4.203"/></g><g><path fill="#fff" d="M254.838 352.6c.217.232-1.906 2.257-4.661 6.017-.684.944-1.427 1.977-2.122 3.157-.76 1.137-1.42 2.44-2.157 3.787-1.368 2.744-2.666 5.863-3.668 9.259-.958 3.408-1.516 6.74-1.818 9.792-.09 1.53-.224 2.987-.186 4.352-.038 1.37.04 2.64.117 3.805.334 4.648 1.056 7.491.748 7.575-.187.064-1.375-2.683-2.064-7.44-.165-1.189-.323-2.494-.353-3.907-.107-1.412-.03-2.922.017-4.512.216-3.17.744-6.645 1.74-10.183a50.202 50.202 0 0 1 3.944-9.55c.804-1.373 1.541-2.692 2.383-3.83.775-1.181 1.605-2.203 2.376-3.121 3.114-3.662 5.582-5.354 5.704-5.202"/></g><g><path fill="#fff" d="M259.821 368.998c.157.25-1.026 1.155-2.571 2.886-.782.854-1.607 1.962-2.417 3.246a25.19 25.19 0 0 0-2.106 4.454 25 25 0 0 0-1.087 4.806c-.154 1.51-.188 2.89-.098 4.046.15 2.314.524 3.757.245 3.858-.2.084-1.042-1.236-1.557-3.682-.269-1.22-.38-2.713-.31-4.367a20.9 20.9 0 0 1 1.037-5.271 20.923 20.923 0 0 1 2.434-4.79c.963-1.346 1.972-2.453 2.934-3.247 1.913-1.61 3.39-2.131 3.496-1.939"/></g><g><path fill="#fff" d="M190.645 216.106c.097-.085.935.74 2.372 2.312a36.08 36.08 0 0 1 2.506 2.967c.922 1.198 2.032 2.527 3.073 4.126l1.687 2.476c.58.866 1.106 1.815 1.692 2.773 1.2 1.902 2.274 4.05 3.443 6.29 2.208 4.544 4.318 9.702 6 15.293 1.627 5.607 2.66 11.085 3.277 16.098.236 2.517.5 4.904.527 7.15.029 1.124.102 2.206.086 3.25-.023 1.04-.048 2.04-.07 2.993-.005 1.91-.213 3.627-.336 5.136-.11 1.51-.301 2.8-.492 3.85-.351 2.102-.606 3.25-.734 3.231-.33-.043.291-4.702.24-12.23-.018-.942-.035-1.926-.052-2.953-.022-1.026-.131-2.092-.192-3.194-.093-2.21-.412-4.552-.688-7.02-.702-4.914-1.765-10.276-3.362-15.78-1.652-5.487-3.672-10.567-5.756-15.075-1.108-2.221-2.114-4.36-3.236-6.265-.55-.96-1.037-1.912-1.575-2.786-.544-.87-1.064-1.707-1.562-2.505-4.048-6.349-7.103-9.92-6.848-10.137"/></g><g><path fill="#fff" d="M211.84 224.877c.16-.142 2.31 1.87 5.045 5.746 1.376 1.93 2.826 4.362 4.237 7.166a64.092 64.092 0 0 1 3.723 9.505 64.152 64.152 0 0 1 2.04 10.003c.338 3.122.443 5.95.335 8.319-.19 4.739-.902 7.596-1.112 7.564-.3-.037-.06-2.93-.212-7.566-.062-2.316-.3-5.067-.721-8.092a77.513 77.513 0 0 0-2.124-9.697 77.379 77.379 0 0 0-3.486-9.294c-1.29-2.77-2.585-5.208-3.792-7.188-2.392-3.974-4.164-6.271-3.933-6.466"/></g><g><path fill="#ff7b5b" d="M137.61 378.078l-1.63-3.328-45.37 34.665 19.793 32.066 45.163-38.079z"/></g><g><path fill="#d7d4d4" d="M92.51 410.16l17.388 30.07 1.112-.495-15.485-28.117z"/></g><g><path fill="#f5f3f3" d="M136.712 377.42L92.51 410.157s.185.703 1.282 1.137c1.098.433 1.733.323 1.733.323l46.471-31.806s-2.679-.622-3.65-1.347c-.973-.728-1.634-1.044-1.634-1.044"/></g><g><path fill="#ff7b5b" d="M143.137 378.53L94.7 410.883l15.731 29.815 2.535 4.128 48.438-35.85s-5.102-7.614-8.165-12.211c-3.063-4.598-9.076-15.44-9.403-16.135-.329-.695-.7-2.1-.7-2.1"/></g><g><path fill="#775298" d="M542.579 155.165l1.368-2.795 38.098 29.11-16.62 26.927L527.5 176.43z"/></g><g><path fill="#d7d4d4" d="M580.445 182.1l-14.6 25.251-.935-.416 13.003-23.61z"/></g><g><path fill="#f5f3f3" d="M543.328 154.61l37.118 27.491s-.157.59-1.077.954c-.922.364-1.456.271-1.456.271L538.89 156.62s2.25-.522 3.066-1.133c.816-.61 1.372-.876 1.372-.876"/></g><g><path fill="#775298" d="M537.94 155.54l40.674 27.167-13.209 25.037-2.128 3.467-40.677-30.105s4.285-6.395 6.857-10.255c2.574-3.86 7.622-12.966 7.896-13.55.275-.581.587-1.761.587-1.761"/></g><g><path fill="#ff7b5b" d="M83.441 102.77s-2.876 1.99-1.439 5.31c1.44 3.32 7.745 13.166 16.265 12.834.348-.013-10.732-18.144-10.732-18.144z"/></g><g><path fill="#775298" d="M70.415 284.296s-10.653-9.516-14.064-7.812c-4.167 2.084-28.016 25.452-27.084 36.46.382 4.51 5.631.646 14.984-9.056 9.356-9.7 21.136-5.543 21.136-5.543z"/></g><g><path fill="#775298" d="M96.3 300.345l-12.86-7.715s-33.336 31.252-28.128 35.419c3.95 3.16 6.272.326 15.627-9.376 9.353-9.7 21.203-4.122 21.203-4.122z"/></g><g><path fill="#f3a683" d="M174.852 197.53l2.412 34.246-53.534-13.947z"/></g><g><path fill="#112129" d="M123.736 219s46.828 2.951 53.063.87c0 0 9.151 89.903-7.132 99.603-16.284 9.702-52.827-4.504-52.827-4.504l9.867-19.401 21.273-1.386v-34.645l-1.526.346z"/></g><g><path fill="#22343d" d="M65.036 280.324s-11.778 4.851-7.967 16.631c0 0 40.207 31.527 59.771 24.251 10.961-4.076 22.735-35.174 30.972-61.742L176.8 219.87s-13.67.684-18.232.666c-8.716-.033-34.83-1.537-34.83-1.537s-13.642 71.372-18.502 73.104c-4.86 1.73-40.199-11.78-40.199-11.78"/></g><g><path fill="#ffc6b2" d="M134.64 129.49s28.064-26.331 32.914-33.262c4.85-6.929 15.246-30.141 28.062-39.842L189.38 43.22s3.813-2.078 6.236 3.464c0 0 9.006-18.014 11.086-17.67 2.08.347-4.156 13.86-4.156 13.86s8.663-12.473 11.087-12.126c2.423.346-6.236 14.022-6.236 14.022s9.699-11.25 11.086-9.864c1.386 1.385-7.623 9.864-7.623 9.864s9.7-5.57 10.74-3.734c1.04 1.838-9.7 6.688-9.7 6.688s-1.04 7.969-7.621 11.432c0 0-13.033 35.214-24.813 46.646l-37.841 39.329z"/></g><g><path fill="#ffc6b2" d="M101.143 143.13s-26.591 27.817-33.565 32.601c-6.975 4.783-30.283 14.963-40.102 27.69l-13.107-6.36s-2.113 3.792 3.407 6.268c0 0-18.1 8.839-17.772 10.922.326 2.083 13.896-4.027 13.896-4.027S1.347 218.77 1.67 221.197c.325 2.427 14.08-6.106 14.08-6.106s-11.34 9.594-9.967 10.992c1.371 1.4 9.935-7.527 9.935-7.527s-5.66 9.648-3.832 10.704c1.826 1.056 6.777-9.638 6.777-9.638s7.976-.962 11.504-7.514c0 0 33.353-13.27 44.897-24.943l41.505-29.41z"/></g><g><path fill="#fff" d="M111.109 132.05L97.66 145.216l3.41 14.842s13.25 31.81 15.254 39.57c3.113 12.068-1.923 30.468-1.923 30.468s22.463-1.865 42.902-2.558c20.438-.693 27.124-7.277 27.124-7.277s-17.72-59.022-29.956-75.52c-12.236-16.497-16.686-21.661-16.686-21.661l-18.015 3.938z"/></g><g><path fill="#fff" d="M150.582 142.792l14.013-8.954s2.14-9.593-14.759-20.908l-19.816 12.418z"/></g><g><path fill="#fff" d="M100.497 144.17c-7.682 1.078-21.721 20.548-23.287 20.512 0 0 9.88 16.124 17.707 16.647 0 0 34.443-41.208 5.58-37.16"/></g><g><path fill="#ffc6b2" d="M127.616 131.505s-11.166-8.343-10.78-11.67c.099-.837 1.647-2.197 2.049-3.405 2.165-6.495-8.274-23.233-14.688-26.76-5.046-2.775-2.834-3.02-13.453 3.29-10.619 6.31-4.569 17.223.173 22.867 4.483 5.335 9.617 7.62 14.237 8.005l6.568 14.589z"/></g><g><path fill="#ffc6b2" d="M107.464 143.08c-2.112-5.18 1.888-11.707 8.934-14.58 7.048-2.875 14.47-1.006 16.587 4.172 2.11 5.18-4.98 12.966-8.939 14.58-3.958 1.615-14.47 1.006-16.582-4.172"/></g><g><path fill="#ffc6b2" d="M90.92 115.824s-3.621-.2-4.023 2.213c-.404 2.415 6.638 2.415 9.254.604z"/></g><g><path fill="#ff7b5b" d="M92.724 118.033c-.688-4.362-5.336-7.605-5.105-11.855 2.228.018 3.66-2.741 2.645-5.1-.399-.927-1.075-1.72-1.507-2.634-.43-.913-.545-2.11.116-2.626.313-.244.737-.286 1.143-.327 3.303-.34 8.962.652 12.002-.475 2.894-1.073 5.996-3.159 5.695-6.705-.263-3.087-2.99-5.59-5.495-7.482-1.434-1.084-5.534-3.92-7.081-3.663-2.361.393-2.934 3.543-3.104 6.18-1.652-1.572-4.088-1.32-5.524-.04-1.436 1.279-2.116 3.312-2.742 5.274-.626 1.963-1.29 4.002-2.707 5.306-1.32 1.215-3.41 2.135-3.136 4.202.326 2.464 3.545 3.34 5.033 5.441-.367-.515-.678 2.775-.466 3.332.635 1.68 2.22 2.792 3.365 4.077 2.44 2.739 3.634 5.497 6.868 7.095"/></g><g><path fill="#fff" d="M112.962 108.06l-8.252 4.268s9.912 7.195 8.252-4.268"/></g><g><path fill="#ffb2a0" d="M101.604 109.754c.451.856-.216 2.093-1.49 2.764-1.275.67-2.673.52-3.124-.335-.45-.856.217-2.092 1.491-2.764 1.275-.67 2.672-.52 3.123.335"/></g><g><path fill="#ffb2a0" d="M113.654 101.524c.451.856-.216 2.093-1.49 2.764-1.275.67-2.673.52-3.124-.335-.45-.856.217-2.093 1.491-2.764 1.275-.67 2.672-.52 3.123.335"/></g><g><path fill="#ff7b5b" d="M107.196 107.762c-.038-.047.116-.25.473-.508.34-.263.933-.546 1.373-1.02.436-.46.593-1.418-.075-1.553-.693-.235-1.48.56-2.384 1.317l-.664.55c-.204.188-.635.463-1.082.408-.851-.138-1.214-.706-1.54-1.086a7.52 7.52 0 0 1-1.282-2.48c-.442-1.536-.244-2.528-.137-2.52.148-.007.197.947.76 2.299a8.26 8.26 0 0 0 1.325 2.156c.3.365.68.705.95.716.112.006.2-.032.414-.21l.655-.551c.455-.368.849-.74 1.37-1.086.505-.341 1.226-.556 1.872-.337.69.181 1.094.985.974 1.544a2.17 2.17 0 0 1-.683 1.296c-.68.568-1.287.706-1.67.877-.393.149-.608.241-.649.188"/></g><g><path fill="#ffa192" d="M105.15 123.83s5.264.03 8.12-1.73c0 0-2.416 2.968-7.25 3.736z"/></g><g><path fill="#22343d" d="M107.432 100.227c-.047.26-.783.34-1.561.684-.79.32-1.359.792-1.578.645-.225-.119.147-1.059 1.213-1.507 1.064-.451 1.996-.067 1.926.178"/></g><g><path fill="#22343d" d="M97.119 106.99c-.2-.148.113-.996.87-1.845.767-.866 1.747-1.155 1.85-.913.11.236-.487.785-1.159 1.547-.683.759-1.346 1.37-1.561 1.21"/></g><g><path fill="#ff7b5b" d="M93.12 105.684c-.427-.316-.76-1.67.873-3.492 1.647-1.864 3.488-1.536 3.709-1.018.237.508-.376 1.232-1.822 2.87-1.468 1.635-2.299 1.986-2.76 1.64"/></g><g><path fill="#ff7b5b" d="M101.791 98.505c-.235-.441.025-1.726 2.148-2.622 2.153-.925 3.588.096 3.567.626-.004.527-.815.896-2.706 1.711-1.905.8-2.754.766-3.009.285"/></g><g><path fill="#775298" d="M554.602 111.28c.139.137-2.147 2.71-6.892 5.511-4.686 2.799-12.06 5.573-20.54 5.636-8.481.063-15.895-2.603-20.622-5.332-4.784-2.73-7.109-5.27-6.972-5.411.197-.25 2.797 1.893 7.588 4.238 4.745 2.354 11.896 4.691 19.99 4.633 8.099-.062 15.213-2.503 19.924-4.928 4.754-2.415 7.324-4.596 7.524-4.348"/></g><g><path fill="#775298" d="M502.859 107.393c-.13.285-2.661-.766-6.926-1.717-2.126-.501-4.705-.888-7.578-1.245-2.883-.319-6.07-.572-9.436-.812-3.367-.236-6.59-.507-9.516-.87-2.927-.388-5.557-.85-7.724-1.436-4.35-1.135-6.813-2.479-6.727-2.668.113-.286 2.704.598 7.01 1.374 2.15.41 4.743.727 7.63 1.015 2.894.264 6.091.48 9.462.718 3.374.24 6.602.549 9.526.969 2.923.459 5.545.993 7.69 1.674 4.307 1.315 6.686 2.82 6.589 2.998"/></g><g><g/><g clip-path="url(#qmyea)"><path fill="#775298" d="M451.558 52.07c8.086-1.716 16.463-.24 24.616 1.12 8.154 1.358 16.618 2.583 24.59.395 14.391-3.95 25.317-18.491 40.241-18.374 6.146.047 11.938 2.672 17.926 4.06 7.434 1.725 15.18 1.54 22.71 2.77 7.533 1.231 15.313 4.26 19.57 10.595 5.05 7.518 3.666 18.122-1.634 25.466-5.299 7.346-13.785 11.819-22.48 14.353-6.065 1.767-12.527 2.79-17.775 6.306-5.31 3.558-8.776 9.284-13.722 13.33-12.412 10.15-31.728 7.24-44.55-2.388-3.22-2.418-6.206-5.225-9.825-6.995-14.72-7.206-35.891 2.332-48.569-10.778-12.874-13.314-11.04-35.631 8.902-39.86"/></g></g><g><path fill="#ffb2a0" d="M447.52 309.916s13.487 28.908 15.065 23.556c1.574-5.356 1.053-18.212.209-20.047-.85-1.836-6.363-9.945-6.363-9.945z"/></g><g><path fill="#ffc6b2" d="M545.044 76.151c1.248 1.598.414-.118 1.827 2.187 5.873-.204 9.815-5.174 9.815-5.174s9.322.247 9.214-1.418c-.106-1.668-8.936-1.045-8.936-1.045s9.34-2.934 8.828-4.399c-.51-1.464-11.293 3.205-11.293 3.205s10.882-6.755 9.274-7.838c-1.607-1.08-12.077 4.816-12.077 4.816s9.1-7.475 7.736-8.438c-1.362-.963-13.984 8.765-13.984 8.765.184-4.786-3.248-4.618-3.248-4.618l.142 11.684s2.127 1.537 2.702 2.273"/></g><g><path fill="#ffc6b2" d="M406.867 23.267c-1.994.368-.448-.326-3.037.465-4.253-4.056-3.688-10.429-3.688-10.429s-7.132-6.003-5.95-7.177c1.19-1.176 7.378 5.152 7.378 5.152s-5.035-8.396-3.68-9.151c1.352-.755 6.319 9.895 6.319 9.895S400.554-.254 402.476.004c1.918.258 5.834 11.616 5.834 11.616S406.468-.008 408.124.176c1.658.182 4.64 15.838 4.64 15.838 3.04-3.701 5.493-1.296 5.493-1.296l-7.702 8.471s-2.77-.09-3.688.078"/></g><g><path fill="#ffc6b2" d="M455.254 72.08c-2.58-.424-8.816 3.721-11.937 10.477-1.747 3.781-2.949 7.623-.944 13.772.944 2.893 2.92 3.256 3.361 4.551.558 1.641-1.289 6.812-1.289 6.812l7.363 2.973c.478-3.552 1.02-7.126 4.64-8.669 1.355-.577 2.805-.943 4.083-1.676 3.449-1.977 5.291-6.302 6.708-9.843 1.058-2.645-5.518-17.337-11.985-18.397"/></g><g><path fill="#ffb2a0" d="M446.487 172.48l-12.334-4.95s-36.605 67.883-36.453 86.717c.152 18.833 50.275 56.541 50.275 56.541l8.454-7.306s-15.475-26.985-23.748-36.499c-8.273-9.516 13.806-94.504 13.806-94.504"/></g><g><path fill="#ffc6b2" d="M507.73 249.804s27.186-12.9 21.723-14.038c-5.463-1.134-18.239.429-19.998 1.421-1.762.993-9.395 7.146-9.395 7.146z"/></g><g><path fill="#ffc6b2" d="M458.599 171.89l-18.711 6.808s-18.717 82.325-11.572 95.25c7.143 12.93 27.21 4.374 55.79-11.225l23.938-13.067-7.99-5.319s-27.856 5.46-35.679 10.901c0 0 4.082-11.567 9.526-27.895 5.442-16.33 9.196-33-15.302-55.453"/></g><g><path fill="#ffc6b2" d="M435.57 115.805c0-5.47 1.76-9.425 7.23-9.425 5.47 0 13.03 1.917 13.03 7.388 0 5.473-4.31 14.356-9.782 14.356-5.469 0-10.478-6.846-10.478-12.319"/></g><g><path fill="#ffc6b2" d="M439.89 105.595s-17.008-18.407-20.41-36.439c-3.404-18.029-9.184-47.286-9.184-47.286l-6.465 1.861s-3.063 39.984 0 46.107c3.06 6.123 18.02 46.89 22.576 57.597z"/></g><g><path fill="#ffc6b2" d="M458.16 119.94s1.308-5.726 22.816-13.508c21.507-7.781 62.083-33.002 62.083-33.002l4.048 4.632s-22.047 25.466-34.873 29.933c-12.826 4.468-40.07 22.08-42.872 23.489-4.239 2.132-4.187 4.815-11.202-11.544"/></g><g><path fill="#22343d" d="M439.89 105.6s-17.28 5.6-17.28 31.895c0 0 .01 36.013 4.084 42.565 0 0 6.62 1.696 14.875 0 8.656-1.78 17.033-8.165 17.033-8.165l13.593-40.81-1.625-19.12-18.483-3.569s5.302 24.777-13.88 14.125c-3.729-2.07 5.484-16.127 5.484-16.127z"/></g><g><path fill="#22343d" d="M425.265 126.979l-8.515-17.74s1.22-10.763 16.853-14.619c0 0 1.58 5.425 3.314 7.497 1.732 2.071 6.776 4.276 6.776 4.276z"/></g><g><path fill="#22343d" d="M457.464 134.117l27.077-5.55s4.707-9.754-6.455-21.357c0 0-21.12 1.275-23.854 1.503-2.691.223-.843 2.296-.843 2.296z"/></g><g><path fill="#22343d" d="M426.651 171.279s-25.61 47.35-29.841 55.81c0 0 75.556 34.708 106.227-7.069 0 0-17.447-36.927-44.419-50.986l-11.635-3.484-19.877 5.501"/></g><g><path fill="#ffc6b2" d="M466.245 90.02s2.917-2.917 4.711-.898c1.795 2.02-6.506 4.937-6.506 4.937z"/></g><g><path fill="#775298" d="M519.606 50.234c.028.101-1.099.59-3.25 1.1-2.146.516-5.33.985-9.286 1.066-3.953.079-8.654-.273-13.8-.97-5.149-.683-10.742-1.686-16.628-2.328-5.875-.628-11.524-.743-16.528.065-5.005.795-9.337 2.434-12.648 4.349-3.31 1.93-5.615 4.07-7.03 5.69-1.422 1.622-2.062 2.657-2.207 2.57-.079-.04.349-1.207 1.638-3.025 1.28-1.812 3.541-4.204 6.912-6.366 3.369-2.15 7.846-3.996 13.049-4.92 5.21-.937 11.036-.865 17.013-.224 5.984.652 11.584 1.713 16.673 2.481 5.088.784 9.687 1.263 13.56 1.353 7.763.217 12.46-1.16 12.532-.84"/></g><g><path fill="#ff7b5b" d="M451.391 88.371c-.008.115-.84.195-2.108-.226-.313-.11-.684-.255-1.029-.571a1.674 1.674 0 0 1-.425-.62 1.4 1.4 0 0 1 .01-1.059c.04-.061.038-.207.118-.21l.247-.008c.158-.022.345.03.527.064.335.064.443.055.681.071.419.01.852-.034 1.285-.13 1.772-.373 2.957-1.662 3.489-2.722.557-1.067.606-1.87.755-1.86.105-.013.312.84-.149 2.127a5.378 5.378 0 0 1-1.3 1.99 5.436 5.436 0 0 1-2.589 1.379 5.686 5.686 0 0 1-1.527.132 5.887 5.887 0 0 1-.657-.076c-.091-.015-.08-.036-.098-.025-.011.01-.017.029-.015.055a.91.91 0 0 0 .197.344c.19.214.465.374.733.507 1.097.538 1.875.698 1.855.838"/></g><g><path fill="#fff" d="M445.31 88.68l9.974 3.93s-8.765 6.044-9.974-3.93"/></g><g><path fill="#ffb2a0" d="M459.547 90.571c-.354.674-1.452.79-2.454.263-1.001-.526-1.526-1.498-1.173-2.17.354-.673 1.454-.792 2.455-.265 1.002.528 1.527 1.5 1.172 2.172"/></g><g><path fill="#ffb2a0" d="M448.42 84.676c-.303.698-1.39.9-2.427.45-1.039-.45-1.637-1.379-1.334-2.077.3-.697 1.388-.899 2.426-.45 1.039.45 1.637 1.38 1.334 2.077"/></g><g><path fill="#ffa192" d="M444.72 99.62s3.496 2.928 7.144 1.985c0 0-1.258 1.886-6.099 1.194 0 0 .402-2.078-1.045-3.179"/></g><g><path fill="#22343d" d="M458.59 84.31a.79.79 0 1 1-1.581 0 .79.79 0 0 1 1.582 0"/></g><g><path fill="#22343d" d="M452.12 81.98a.79.79 0 1 1 0 0"/></g><g><path fill="#775298" d="M461.126 82.207c-.244.103-.715-.468-1.43-.93-.698-.482-1.407-.699-1.406-.963-.023-.253.966-.46 1.927.185.962.64 1.153 1.632.909 1.708"/></g><g><path fill="#775298" d="M449.73 78.372c-.016-.246.833-.557 1.97-.527 1.156.025 2.01.586 1.892.82-.11.238-.914.135-1.93.116-1.02-.03-1.915-.14-1.932-.409"/></g><g><path fill="#22343d" d="M453.29 321.663s4.15 14.727 8.433 13.522c4.284-1.205 1.063-21.759 1.063-21.759l-4.274-6.756s4.015 34.405-5.222 14.993"/></g><g><path fill="#22343d" d="M505.61 240.016s3.017-3.292 6.674-3.84c3.659-.55 16.733-2.104 18.653-.367 1.921 1.738-10.597 7.563-10.597 7.563s4.362-2.78 2.55-3.813c-3.2-1.83-17.28.457-17.28.457"/></g><g><path fill="#22343d" d="M500.43 243.956l4.093 8.31 2.234-1.24-5.459-8.186z"/></g><g><path fill="#22343d" d="M454.658 300.15l-10.048 9.056 2.977 2.481 8.435-9.18z"/></g><g><path fill="#22343d" d="M244.59 209.994c-2.857-7.091-3.956-14.986-8.22-21.332-6.135-9.131-17.92-13.662-22.9-23.473-2.114-4.167-2.778-8.934-2.8-13.606-.04-9.244 2.727-19.071 9.867-24.946 8.204-6.75 20.514-6.656 30.123-2.121 9.607 4.534 16.947 12.766 23.188 21.364 6.242 8.597 11.706 17.824 18.974 25.572 5.39 5.744 11.782 10.699 15.84 17.448 11.13 18.503-.32 41.915-19.967 48.593-17.263 5.866-38.133-12.674-44.105-27.5"/></g><g><path fill="#ffc6b2" d="M219.995 340.491c1.709 1.405-.155.432 2.33 2.051-.554 6.21-6.298 10.122-6.298 10.122s-.242 9.886-2.087 9.683c-1.85-.2-.665-9.52-.665-9.52s-3.781 9.738-5.381 9.118c-1.599-.618 4.19-11.791 4.19-11.791s-8.113 11.167-9.228 9.406c-1.113-1.76 6.026-12.535 6.026-12.535s-8.815 9.242-9.811 7.745c-.995-1.492 10.52-14.344 10.52-14.344-5.33-.059-4.952-3.686-4.952-3.686l12.98.77s1.59 2.333 2.376 2.981"/></g><g><path fill="#ffc6b2" d="M343.998 154.043c2.221.39.497-.346 3.38.492 4.733-4.3 4.105-11.057 4.105-11.057s7.938-6.367 6.622-7.61c-1.324-1.248-8.211 5.46-8.211 5.46s5.603-8.901 4.096-9.703c-1.504-.8-7.032 10.494-7.032 10.494s4.067-13.017 1.928-12.745c-2.134.274-6.493 12.318-6.493 12.318s2.05-12.33.206-12.135c-1.845.193-4.83 16.347-4.83 16.347-4.346-3.537-7.389-1.272-7.389-1.272l9.514 9.328s3.083-.094 4.104.083"/></g><g><path fill="#ffc6b2" d="M289.659 208.034c4.015-.626 16.261 7.31 13.145 23.426-.26 1.353-2.028 4.331-2.468 5.563-.556 1.56 3.776 7.271 3.776 7.271l-11.183 3.573c-.477-3.378.326-8.315-3.288-9.782-1.352-.55-2.799-.897-4.074-1.593-3.444-1.88-5.282-5.994-6.696-9.362-1.056-2.516-1.86-5.223-1.83-7.953.073-6.876 6.163-10.134 12.618-11.143"/></g><g><path fill="#ffc6b2" d="M312.053 252.175c0-5.8-1.84-8.015-7.928-8.015S290 246.374 290 252.175c0 5.802 4.299 13.062 10.39 13.062 6.087 0 11.663-7.26 11.663-13.062"/></g><g><path fill="#ffc6b2" d="M307.24 241.343s18.93-19.519 22.717-38.64c3.789-19.118 10.223-50.143 10.223-50.143l7.194 1.973s3.41 42.4 0 48.893c-3.406 6.494-22.718 51.588-22.34 63.13z"/></g><g><path fill="#ffc6b2" d="M273.498 250.8s-6.437 1.082-16.282 23.45c-9.845 22.366-40.136 64.005-40.136 64.005l4.923 4.534s29.533-22.004 35.213-35.351c5.678-13.347 12.872-29.941 16.282-29.222 3.406.724 17.795-19.12 0-27.416"/></g><g><path fill="#ff7b5b" d="M324.179 269.541l8.815-24.33s-1.36-11.41-18.758-15.501l-9.856 14.2z"/></g><g><path fill="#ff7b5b" d="M276.439 248.93s-10.4.876-18.829 19.39c0 0 9.27 12.798 16.052 13.23 0 0 25.187-21.53 2.777-32.62"/></g><g><path fill="#ffc6b2" d="M305.007 468.484s-15.012 30.655-16.767 24.98c-1.752-5.678-1.173-19.313-.233-21.259.945-1.947 7.082-10.545 7.082-10.545z"/></g><g><path fill="#654287" d="M306.156 322.749l13.728-5.249s40.742 71.985 40.573 91.958c-.169 19.969-55.957 59.957-55.957 59.957l-9.41-7.75s26.443-38.878 35.65-48.967c4.604-5.046-28.357-29.772-33.35-53.564-4.993-23.792 8.766-36.385 8.766-36.385"/></g><g><path fill="#ffc6b2" d="M223.618 452.434s-28.08 20.699-26.913 14.89c1.172-5.815 8.242-17.68 10.014-19 1.776-1.319 11.363-6.284 11.363-6.284z"/></g><g><path fill="#775298" d="M268.807 348.24l40.617-23.54s1.612 81.77-8.139 99.45c-9.75 17.68-78.565 28.88-78.565 28.88l-4.64-10.993s42.456-25.296 55.491-30.247c13.036-4.953-4.764-63.55-4.764-63.55"/></g><g><path fill="#775298" d="M292.996 308.6s-29.907 10.59-24.19 39.642c5.717 29.051 15.245 34.498 15.245 34.498l17.152-28.143 17.219-36.855-17.22-2.184z"/></g><g><path fill="#ff7b5b" d="M307.244 241.35s22.019 12.34 22.019 40.224c0 0-2.798 31.789-7.331 38.734 0 0-7.37 1.8-16.557 0-9.634-1.886-18.957-8.657-18.957-8.657l-7.524-38.92-5.854-22.724 3.174-1.047 16.56-1.819s-2.38 24.738 16.11 12.453c3.895-2.587-4.847-15.486-4.847-15.486z"/></g><g><path fill="#fff" d="M320.72 135.976l46.165 26.931 25.969-49.052-43.28-24.045z"/></g><g><path fill="#fff" d="M384.943 370.784l33.017-20.44-27.278-47.614-30.182 19.572z"/></g><g><path fill="#22343d" d="M222.38 167.895c.086-.078 1.106.847 2.718 2.734 1.605 1.89 3.794 4.764 5.992 8.642 2.206 3.862 4.39 8.762 5.948 14.45 1.613 5.645 2.695 11.99 5.175 18.104 1.288 3.02 2.848 5.83 4.705 8.316a45.157 45.157 0 0 0 6.091 6.525c4.372 3.68 8.951 6.21 13.032 7.672 4.077 1.483 7.57 2.148 9.998 2.386 2.425.268 3.796.308 3.797.467.007.1-1.36.308-3.85.26-2.49-.018-6.113-.494-10.38-1.862-4.271-1.349-9.096-3.845-13.71-7.605a45.009 45.009 0 0 1-6.444-6.74c-1.965-2.587-3.624-5.544-4.972-8.71-2.583-6.389-3.604-12.79-5.107-18.361a67.123 67.123 0 0 0-5.446-14.27c-2.005-3.88-3.994-6.822-5.405-8.828-1.418-2.002-2.25-3.086-2.143-3.18"/></g><g><path fill="#22343d" d="M279.095 136.38c.34-.051.67 4.493 3.212 11.215a50.538 50.538 0 0 0 5.871 11.062c1.356 1.933 2.916 3.838 4.682 5.737 1.754 1.906 3.664 3.842 5.47 6.014 3.62 4.384 6.111 9.122 8.456 13.304 2.329 4.222 4.183 8.24 5.126 11.833.984 3.582 1.041 6.666.73 8.711-.326 2.055-.837 3.096-.922 3.067-.162-.042.102-1.141.195-3.132.08-1.988-.173-4.885-1.273-8.271-1.062-3.4-2.974-7.232-5.36-11.365-2.423-4.131-4.935-8.774-8.394-12.952-1.736-2.09-3.619-4.02-5.383-5.974-1.775-1.944-3.388-3.969-4.75-5.995-2.73-4.057-4.553-8.1-5.695-11.595a41.925 41.925 0 0 1-1.9-8.474c-.234-2.036-.171-3.175-.065-3.185"/></g><g><path fill="#ff7b5b" d="M293.245 225.555c-.018-.13.735-.25 1.445-1.084.163-.193.328-.473.325-.637-.004-.176-.127-.48-.338-.657a.96.96 0 0 0-.785-.258c-.332.024-.737.189-1.265.268-1.159.154-2.062-.5-2.656-1.03a9.45 9.45 0 0 1-1.424-1.63c-.692-1.02-.908-1.758-.801-1.812.122-.066.54.545 1.32 1.4.39.426.882.914 1.462 1.384.572.456 1.273.872 1.972.761.37-.047.802-.22 1.328-.256.536-.053 1.131.194 1.458.562.348.376.543.819.502 1.343-.104.537-.389.788-.624 1.022-1.018.891-1.952.745-1.919.624"/></g><g><path fill="#fff" d="M298.707 226.32l-8.867 3.224s7.523 6.582 8.867-3.224"/></g><g><path fill="#ffb2a0" d="M288.957 225.773c.354.673-.17 1.646-1.172 2.172-1.002.527-2.1.41-2.454-.263-.355-.672.17-1.645 1.171-2.172 1.002-.527 2.1-.41 2.455.263"/></g><g><path fill="#ffb2a0" d="M299.46 220.381c.29.703-.323 1.621-1.368 2.053-1.046.434-2.13.214-2.42-.489-.29-.703.323-1.621 1.37-2.053 1.045-.432 2.128-.214 2.418.489"/></g><g><path fill="#ffa192" d="M290.1 238.32s2.966.604 6.748-.34c0 0-1.864 1.811-4.91 2.232 0 0-.682-1.262-1.838-1.891"/></g><g><path fill="#22343d" d="M293.13 218.387a.79.79 0 1 1-1.022 1.205.79.79 0 0 1 1.023-1.205"/></g><g><path fill="#22343d" d="M287.17 221.817a.79.79 0 1 1-1.022 1.205.79.79 0 0 1 1.023-1.205"/></g><g><path fill="#22343d" d="M293.164 215.095c-.079.253-.818.244-1.632.49-.82.22-1.443.622-1.645.448-.208-.144.274-1.032 1.388-1.348 1.11-.32 1.989.175 1.89.41"/></g><g><path fill="#22343d" d="M282.869 221.308c-.2-.147.113-.994.87-1.842.766-.867 1.747-1.155 1.85-.914.11.235-.488.785-1.16 1.546-.682.76-1.345 1.372-1.56 1.21"/></g><g><path fill="#ffc6b2" d="M279.525 227.892s-2.844-2.388-4.21-.227c-1.363 2.161 6.143 3.299 6.143 3.299z"/></g><g><path fill="#775298" d="M211.151 445.7s-4.077 1.773-5.14 2.837c-1.064 1.063-10.813 17.902-9.572 20.03 1.241 2.126 11.018-5.094 11.018-5.094s-8.181 1.55 3.694-17.773"/></g><g><path fill="#775298" d="M290.702 467.97s-2.895 3.13-3.342 4.568c-.447 1.434-1.247 20.877.842 22.182 2.088 1.307 7.794-9.421 7.794-9.421s-6.822 5.344-5.294-17.284"/></g></g></g></g></svg>