<svg xmlns="http://www.w3.org/2000/svg" width="520" height="574" viewBox="0 0 520 574"><defs><clipPath id="oksja"><path d="M0 62.3h519.784v511.009H0z"/></clipPath><clipPath id="oksjb"><path d="M46.75 82.13h363.688v491.18H46.75z"/></clipPath><clipPath id="oksjc"><path d="M0 573.31h519.785V0H0z"/></clipPath></defs><g><g><g><g/><g clip-path="url(#oksja)"><path fill="#fde6d6" d="M456.45 550.179c-13.45 8.1-29.1 13.95-46.35 17.75-11.45 2.5-23.65 4.15-36.35 4.85-46.7 2.85-100.4-5.9-152.15-23.4-11.6-3.9-23.1-8.25-34.4-13.05-84.15-35.4-157.3-93.2-177.8-160.2-37.45-122.3 42.95-210.25 136.05-290.95 37.75-32.75 86.95-28.05 137.85-.4 11.9 6.45 23.85 14.15 35.8 22.9 44.85 32.95 89.25 80.9 126.75 134.2 73.6 104.65 116.2 244.85 10.6 308.3"/></g></g><g><path fill="#e8e5ea" d="M417.213 155.93c-8.685-17.51-11.865-39.67 5.55-46.805 19.45-7.965 50.44 4.915 59.46 34.14 5.765 18.675 3.785 44.745-12.145 54.765-13.63 8.58-42.21-20.625-52.865-42.1"/></g><g><path fill="#d8d5db" d="M204.16 557.75a82.172 82.172 0 0 1-10.035-.825.621.621 0 0 1-.525-.705c.045-.345.33-.59.706-.53 3.288.475 6.61.745 9.878.81.34.01.621.295.611.64a.622.622 0 0 1-.626.61zm9.375-.99a.631.631 0 0 1 .555-.69 79.288 79.288 0 0 0 9.79-1.665.615.615 0 0 1 .75.465.615.615 0 0 1-.46.75 81.032 81.032 0 0 1-9.945 1.695c-.025.005-.045.005-.065.005-.32 0-.59-.24-.625-.56zm-29.25-1.84a96.46 96.46 0 0 1-9.585-3.09.621.621 0 0 1-.365-.805.621.621 0 0 1 .806-.36 96.489 96.489 0 0 0 9.459 3.045c.335.09.535.43.445.76a.624.624 0 0 1-.76.45zm48.745-2.55a.621.621 0 0 1 .375-.8 91.229 91.229 0 0 0 4.415-1.73c1.605-.68 3.215-1.36 4.82-2.045a.623.623 0 1 1 .495 1.145c-1.61.69-3.22 1.375-4.83 2.055-1.5.63-3.005 1.22-4.475 1.75a.622.622 0 0 1-.8-.375zm-67.555-4.57a121.846 121.846 0 0 1-8.83-4.807.623.623 0 1 1 .645-1.068 123.264 123.264 0 0 0 8.74 4.757.624.624 0 1 1-.555 1.118zm86.03-3.145a.633.633 0 0 1 .325-.825 952.59 952.59 0 0 0 9.15-4.04.625.625 0 0 1 .515 1.14c-3.043 1.36-6.096 2.71-9.164 4.045a.627.627 0 0 1-.25.055c-.24 0-.47-.14-.576-.375zm-103.294-7.14a158.848 158.848 0 0 1-8.026-6.04.628.628 0 0 1-.1-.88.631.631 0 0 1 .879-.095c2.632 2.11 5.31 4.13 7.961 5.99a.627.627 0 0 1-.36 1.14.636.636 0 0 1-.354-.115zm121.544-1.016a.62.62 0 0 1 .305-.826c3.035-1.408 6.06-2.83 9.06-4.263a.636.636 0 0 1 .835.296.63.63 0 0 1-.295.836 797.127 797.127 0 0 1-9.08 4.263c-.08.04-.17.06-.26.06a.621.621 0 0 1-.565-.366zm18.09-8.624a.628.628 0 0 1 .28-.84c3-1.49 5.98-2.99 8.935-4.515a.631.631 0 0 1 .84.27.63.63 0 0 1-.27.845c-2.96 1.525-5.94 3.03-8.95 4.52a.618.618 0 0 1-.835-.28zm-155.311-2.9c-2.458-2.2-4.921-4.52-7.314-6.895a.624.624 0 0 1 .876-.89 197.58 197.58 0 0 0 7.274 6.855.63.63 0 0 1 .045.885.635.635 0 0 1-.466.205c-.15 0-.3-.055-.415-.16zm173.121-6.265a.63.63 0 0 1 .25-.85c2.95-1.59 5.87-3.2 8.76-4.835a.63.63 0 0 1 .855.235c.165.3.06.68-.24.855a523.688 523.688 0 0 1-8.78 4.845.623.623 0 0 1-.845-.25zm-187.41-7.865a255.385 255.385 0 0 1-6.67-7.501.624.624 0 0 1 .95-.81c2.19 2.563 4.425 5.07 6.635 7.462a.624.624 0 1 1-.915.85zM323.1 508.86a.63.63 0 0 1 .22-.86c2.91-1.735 5.78-3.49 8.525-5.225a.638.638 0 0 1 .865.195c.18.295.095.68-.195.865a422.99 422.99 0 0 1-8.555 5.24.62.62 0 0 1-.32.09.633.633 0 0 1-.54-.305zm16.955-10.655a.624.624 0 0 1 .175-.867 344.28 344.28 0 0 0 8.22-5.698.62.62 0 0 1 .87.145c.2.28.14.676-.14.877a351.741 351.741 0 0 1-8.255 5.718.636.636 0 0 1-.35.105c-.2 0-.395-.1-.52-.28zM105.2 495.58a344.039 344.039 0 0 1-6.11-7.961.628.628 0 0 1 .13-.874.64.64 0 0 1 .88.13 306.53 306.53 0 0 0 6.08 7.926.626.626 0 0 1-.98.78zm251.165-9.005a.622.622 0 0 1 .115-.875 284.6 284.6 0 0 0 7.82-6.22.615.615 0 0 1 .875.08c.22.27.185.66-.08.88a269.195 269.195 0 0 1-7.855 6.25.614.614 0 0 1-.38.13.616.616 0 0 1-.495-.245zM93.24 479.47a350.078 350.078 0 0 1-5.615-8.32.62.62 0 0 1 .18-.865.63.63 0 0 1 .865.185c1.83 2.795 3.715 5.58 5.595 8.285a.62.62 0 0 1-.155.87.623.623 0 0 1-.87-.155zm278.58-5.635a.622.622 0 0 1 .05-.879 235.126 235.126 0 0 0 7.304-6.811.63.63 0 0 1 .88.01c.246.25.241.644-.01.884a237.43 237.43 0 0 1-7.338 6.846.625.625 0 0 1-.886-.05zm-289.603-11.14a464.998 464.998 0 0 1-5.177-8.59.633.633 0 0 1 .225-.86.627.627 0 0 1 .853.225c1.698 2.89 3.43 5.77 5.162 8.565a.625.625 0 0 1-1.063.66zm303.953-2.805a.623.623 0 0 1-.03-.88c2.28-2.445 4.51-4.96 6.625-7.465a.635.635 0 0 1 .88-.075c.265.225.3.62.075.885a210.18 210.18 0 0 1-6.665 7.51.632.632 0 0 1-.885.025zM72.06 445.385a472.822 472.822 0 0 1-4.79-8.806.624.624 0 0 1 .255-.844.634.634 0 0 1 .845.26 501.158 501.158 0 0 0 4.78 8.78.622.622 0 0 1-.545.93.622.622 0 0 1-.545-.32zm327.045-.74a.632.632 0 0 1-.12-.875 180.35 180.35 0 0 0 5.795-8.11.627.627 0 0 1 .87-.17c.285.195.36.585.165.87-1.85 2.755-3.81 5.5-5.83 8.165a.632.632 0 0 1-.88.12zm11.22-16.56a.623.623 0 0 1-.22-.855 164.171 164.171 0 0 0 4.825-8.745c.16-.31.53-.43.84-.27.31.16.43.535.275.84a166.694 166.694 0 0 1-4.865 8.81.624.624 0 0 1-.855.22zM62.66 427.67a579.399 579.399 0 0 1-4.435-9 .627.627 0 0 1 1.13-.545 554.91 554.91 0 0 0 4.42 8.98.623.623 0 0 1-.555.905.628.628 0 0 1-.56-.34zm356.87-17.355a.624.624 0 0 1-.32-.82c1.33-3.02 2.58-6.13 3.73-9.245.12-.32.475-.49.805-.37.32.12.485.48.365.805-1.155 3.14-2.42 6.27-3.755 9.31a.624.624 0 0 1-.825.32zM53.97 409.6a589.888 589.888 0 0 1-4.1-9.164.634.634 0 0 1 .325-.826.633.633 0 0 1 .825.325c1.34 3.073 2.7 6.121 4.085 9.144a.629.629 0 0 1-.305.831.615.615 0 0 1-.265.055.621.621 0 0 1-.565-.365zm372.545-18.03a.624.624 0 0 1-.415-.78c.95-3.156 1.825-6.393 2.59-9.61a.628.628 0 0 1 .755-.465c.335.085.545.42.465.754a172.617 172.617 0 0 1-2.615 9.681.625.625 0 0 1-.78.42zm-380.567-.365a571.147 571.147 0 0 1-3.788-9.29.62.62 0 0 1 .35-.81.63.63 0 0 1 .812.345c1.238 3.115 2.5 6.205 3.778 9.275a.617.617 0 0 1-.336.815.624.624 0 0 1-.817-.335zm-7.413-18.64a655.962 655.962 0 0 1-3.47-9.385.628.628 0 0 1 .375-.805c.33-.11.68.055.8.38 1.13 3.135 2.285 6.26 3.46 9.365a.625.625 0 0 1-.36.805.618.618 0 0 1-.805-.36zm392.695-.415a.63.63 0 0 1-.505-.725 190.64 190.64 0 0 0 1.49-9.86c.04-.345.37-.59.695-.545a.629.629 0 0 1 .545.7c-.415 3.35-.92 6.685-1.5 9.92a.626.626 0 0 1-.615.52c-.035 0-.07-.005-.11-.01zM31.75 353.73a661.543 661.543 0 0 1-3.175-9.505.625.625 0 0 1 1.19-.385c1.035 3.17 2.09 6.335 3.17 9.485a.632.632 0 0 1-.39.795.727.727 0 0 1-.205.03c-.255 0-.5-.16-.59-.42zm402.005-1.42a.627.627 0 0 1-.58-.67c.23-3.27.39-6.62.465-9.96.005-.345.25-.595.64-.61.34.005.615.29.61.64-.075 3.36-.235 6.73-.47 10.02-.02.33-.3.58-.625.58h-.04zM25.55 334.67l-.15-.485a451.034 451.034 0 0 1-2.84-9.61.621.621 0 0 1 .43-.77c.345-.09.68.1.77.43.91 3.19 1.865 6.42 2.84 9.59l.14.475a.62.62 0 0 1-.41.78.624.624 0 0 1-.78-.41zm408.57-2.36a.63.63 0 0 1-.625-.595c-.17-3.265-.465-6.605-.885-9.92a.62.62 0 0 1 .54-.695c.375-.03.655.2.7.54.42 3.345.725 6.715.895 10.01a.626.626 0 0 1-.59.66zM19.915 314.895c-.845-3.227-1.66-6.469-2.435-9.716a.623.623 0 0 1 .46-.754c.33-.08.675.125.755.46.78 3.242 1.585 6.474 2.43 9.696a.627.627 0 0 1-.445.764c-.055.01-.11.02-.16.02-.28 0-.53-.19-.605-.47zm411.12-2.935c-.62-3.185-1.36-6.455-2.205-9.72a.624.624 0 1 1 1.21-.31c.85 3.285 1.6 6.58 2.22 9.795a.624.624 0 0 1-.495.73.493.493 0 0 1-.12.015.625.625 0 0 1-.61-.51zm-415.78-16.565c-.7-3.24-1.375-6.55-2-9.83a.618.618 0 0 1 .495-.73c.33-.09.665.155.73.495.625 3.27 1.295 6.57 1.995 9.805a.619.619 0 0 1-.61.755c-.29 0-.545-.2-.61-.495zm410.795-2.73c-.995-3.11-2.1-6.275-3.29-9.42a.623.623 0 0 1 .365-.805c.32-.14.68.035.805.36 1.2 3.165 2.31 6.355 3.31 9.48a.628.628 0 0 1-.405.79.641.641 0 0 1-.19.025.621.621 0 0 1-.595-.43zM11.475 275.7a365.834 365.834 0 0 1-1.535-9.924.622.622 0 1 1 1.235-.176c.455 3.228.97 6.556 1.53 9.894.06.34-.17.66-.51.721-.035.005-.07.01-.105.01-.3 0-.565-.22-.615-.525zM419.01 274a233.178 233.178 0 0 0-4.17-9.084.627.627 0 0 1 1.125-.55 242.887 242.887 0 0 1 4.195 9.133.632.632 0 0 1-.325.826.631.631 0 0 1-.825-.325zM8.655 255.82c-.395-3.365-.735-6.73-1.025-9.98a.627.627 0 0 1 .565-.68c.405-.035.65.225.68.565.285 3.245.63 6.595 1.02 9.955.04.34-.205.65-.55.69-.025.005-.045.005-.07.005a.623.623 0 0 1-.62-.555zm401.643.2c-1.562-2.9-3.21-5.83-4.903-8.715a.633.633 0 0 1 .226-.855.622.622 0 0 1 .856.225 272.739 272.739 0 0 1 4.923 8.755c.165.3.05.685-.256.845a.618.618 0 0 1-.295.075.63.63 0 0 1-.55-.33zm-10.108-17.25a303.028 303.028 0 0 0-5.495-8.35.631.631 0 0 1 .165-.87.628.628 0 0 1 .87.165c1.89 2.775 3.75 5.6 5.515 8.385.185.295.1.68-.19.865a.631.631 0 0 1-.865-.195zM7.51 236.415a.629.629 0 0 1-.625-.59c-.2-3.39-.35-6.77-.44-10.03a.626.626 0 0 1 .605-.645h.02c.335 0 .615.27.625.61.09 3.25.24 6.61.44 9.99a.634.634 0 0 1-.59.665zm381.43-14.17a351.052 351.052 0 0 0-6.005-8 .629.629 0 0 1 .115-.88c.27-.21.66-.165.875.115 2.03 2.62 4.055 5.325 6.025 8.03.2.28.14.67-.135.87a.616.616 0 0 1-.37.12.61.61 0 0 1-.505-.255zm-382.62-6.5c.015-3.351.09-6.723.22-10.026.015-.34.28-.624.65-.599a.625.625 0 0 1 .6.65 286.25 286.25 0 0 0-.22 9.98c0 .345-.28.625-.625.625a.632.632 0 0 1-.625-.63zm370.394-9.34a378.863 378.863 0 0 0-6.449-7.646.62.62 0 0 1 .07-.88.622.622 0 0 1 .881.066 367.828 367.828 0 0 1 6.469 7.671.62.62 0 0 1-.09.88.618.618 0 0 1-.396.139c-.18 0-.36-.08-.485-.23zM7.705 196.37a.629.629 0 0 1-.575-.67c.265-3.37.6-6.735.995-9.995.04-.34.32-.57.695-.545.345.04.585.35.545.695-.39 3.245-.725 6.59-.99 9.94a.618.618 0 0 1-.62.575h-.05zm355.934-5.095a415.474 415.474 0 0 0-6.834-7.32.627.627 0 0 1 .02-.88.626.626 0 0 1 .886.02c2.298 2.395 4.601 4.865 6.854 7.34a.615.615 0 0 1-.045.88.603.603 0 0 1-.42.165.624.624 0 0 1-.461-.205zm-13.838-14.47a446.164 446.164 0 0 0-7.161-6.98.625.625 0 0 1-.02-.885.622.622 0 0 1 .879-.02 449.285 449.285 0 0 1 7.181 7 .625.625 0 0 1 0 .885.604.604 0 0 1-.44.185c-.16 0-.319-.06-.439-.185zm-339.736-.31a.62.62 0 0 1-.51-.72 201.436 201.436 0 0 1 1.9-9.87.636.636 0 0 1 .745-.48c.335.075.55.41.475.746-.7 3.203-1.335 6.506-1.89 9.809a.627.627 0 0 1-.72.515zm325.25-13.49a452.141 452.141 0 0 0-7.505-6.67.624.624 0 0 1 .82-.94c2.525 2.19 5.05 4.44 7.525 6.685a.625.625 0 0 1-.84.925zM14.31 156.92a.63.63 0 0 1-.435-.775c.91-3.255 1.91-6.485 2.98-9.595.115-.325.475-.51.795-.39.325.115.5.47.39.795a165.518 165.518 0 0 0-2.96 9.53.624.624 0 0 1-.6.455.634.634 0 0 1-.17-.02zm305.855-7.07a442.04 442.04 0 0 0-7.775-6.315.621.621 0 0 1-.1-.875c.22-.27.61-.31.875-.105 2.65 2.1 5.275 4.23 7.8 6.33.265.22.305.615.085.88a.64.64 0 0 1-.885.085zm-299.39-11.87a.626.626 0 0 1-.335-.82c1.31-3.12 2.735-6.19 4.23-9.12a.619.619 0 0 1 .84-.275c.31.155.43.535.275.84a135.957 135.957 0 0 0-4.195 9.04c-.1.24-.33.38-.575.38a.68.68 0 0 1-.24-.045zm283.71-.575c-2.68-2.025-5.38-4.03-8.03-5.95a.625.625 0 1 1 .735-1.01c2.655 1.92 5.365 3.93 8.05 5.965.275.205.325.6.12.875a.632.632 0 0 1-.875.12zm-16.185-11.71a440.634 440.634 0 0 0-8.3-5.595.623.623 0 0 1-.18-.865.636.636 0 0 1 .865-.18 450.474 450.474 0 0 1 8.32 5.605c.29.2.36.59.165.87a.641.641 0 0 1-.515.275.646.646 0 0 1-.355-.11zM29.79 120.11a.628.628 0 0 1-.205-.859c1.76-2.862 3.655-5.67 5.62-8.336.21-.275.6-.33.875-.13.28.205.335.594.13.869a120.172 120.172 0 0 0-5.56 8.251.612.612 0 0 1-.53.3.615.615 0 0 1-.33-.095zm241.785-5.42a425.318 425.318 0 0 0-8.545-5.187.616.616 0 0 1-.22-.853c.17-.305.555-.4.855-.22a419.043 419.043 0 0 1 8.575 5.202.624.624 0 1 1-.665 1.058zm-17.225-10.185a395.74 395.74 0 0 0-8.79-4.77.628.628 0 0 1-.265-.845.63.63 0 0 1 .845-.265c2.94 1.55 5.905 3.16 8.82 4.79a.625.625 0 0 1-.61 1.09zm-212.76-.53a.62.62 0 0 1-.05-.88 107.142 107.142 0 0 1 7.02-7.2.619.619 0 0 1 .88.025.62.62 0 0 1-.03.885 110.988 110.988 0 0 0-6.94 7.12c-.12.14-.29.21-.465.21a.602.602 0 0 1-.415-.16zm195.055-8.785a358.23 358.23 0 0 0-9.03-4.3.63.63 0 0 1-.305-.83.626.626 0 0 1 .83-.31c2.99 1.375 6.04 2.83 9.06 4.315.31.155.435.53.285.84a.635.635 0 0 1-.565.35.616.616 0 0 1-.275-.065zm-180.53-4.93a.628.628 0 0 1 .115-.88c2.625-2.02 5.4-3.96 8.245-5.755a.633.633 0 0 1 .865.195.622.622 0 0 1-.195.86 108.729 108.729 0 0 0-8.155 5.695.619.619 0 0 1-.38.125c-.19 0-.37-.08-.495-.24zm162.35-3.415c-3.06-1.3-6.175-2.57-9.265-3.765a.628.628 0 0 1-.355-.81c.13-.32.49-.47.81-.355 3.1 1.2 6.23 2.475 9.3 3.78.32.135.465.5.335.82a.638.638 0 0 1-.825.33zM72.955 79.5a.626.626 0 0 1 .275-.84c2.945-1.5 6.025-2.905 9.15-4.17.31-.14.68.025.81.345a.626.626 0 0 1-.345.815c-3.09 1.25-6.135 2.64-9.05 4.125a.621.621 0 0 1-.84-.275zm126.865.115a269.882 269.882 0 0 0-9.485-3.145.622.622 0 0 1-.41-.78c.1-.33.455-.52.78-.41 3.175.985 6.385 2.05 9.53 3.155a.624.624 0 1 1-.415 1.18zm-19.08-5.935a230.43 230.43 0 0 0-9.705-2.4.626.626 0 0 1-.475-.75.611.611 0 0 1 .746-.47c3.208.72 6.49 1.53 9.764 2.41a.626.626 0 0 1-.166 1.23.622.622 0 0 1-.165-.02zm-89.31-1.8a.618.618 0 0 1 .41-.78c3.165-1 6.425-1.89 9.695-2.655a.624.624 0 0 1 .285 1.215c-3.24.76-6.475 1.645-9.605 2.63a.624.624 0 0 1-.785-.41zm69.824-2.57c-3.288-.59-6.61-1.09-9.879-1.5a.626.626 0 0 1-.545-.7c.045-.34.33-.57.7-.54 3.294.41 6.637.92 9.945 1.51.335.06.565.385.505.725a.63.63 0 0 1-.616.515c-.04 0-.075-.005-.11-.01zm-50.359-2.04a.626.626 0 0 1 .53-.71c3.23-.47 6.6-.82 10.005-1.045.39-.065.645.24.665.585a.618.618 0 0 1-.58.66c-3.375.225-6.71.575-9.91 1.035a.551.551 0 0 1-.09.01.628.628 0 0 1-.62-.535zm30.536-.425c-3.342-.23-6.694-.355-9.952-.375a.622.622 0 0 1-.624-.625.628.628 0 0 1 .624-.625h.005c3.288.02 6.665.145 10.037.375a.63.63 0 0 1 .579.67c-.025.33-.3.58-.624.58h-.045z"/></g><g><g/><g clip-path="url(#oksjb)"><path fill="#d1cdd3" d="M407.8 371.48c5.3 19.4 1.5 76.35-1.7 108.05-1 9.4-1.9 16.6-2.5 19.9.2.35.5.65.6 1.05 1.65 5.9-.5 28-3.3 32.6-2.85 4.75-15.85 12.7-18.6 11.3-2.6-1.35-5.85-6.7-8.35-13.2.3 12.1.6 24.35.85 34.35.05 2.55-.3 4.95-1.05 7.25-46.7 2.85-100.4-5.9-152.15-23.4-11.6-3.9-23.1-8.25-34.4-13.05 1.6-20.35 3.85-40.4 6.9-55.65-1.05-.15-2.1-.3-3.1-.45 10.85-36.75 16.6-89.15 19.6-135.65-9.2 16.7-17.65 31.15-22.25 38.55-3.55 9.3-14.3 15.55-28.6 8.3-23.05-11.8-80.4-79.9-89.05-92-.4-.05-.85-.2-1.25-.4-5.35-2.9-19.7-19.8-21.1-25.05-1.4-5.3 1.85-20.15 4.8-21.15 2.15-.75 5.3.2 8.9 1.8l-15.3-34.35 3.25-1.45 11.9 26.6c1.55-3.5 5.6-5.65 7.25-.4 3.15 9.85 8.45 12.75 11.8 20.15.2.4.4.85.65 1.5.1.25.2.6.3.9.05.2.15.35.25.6.05.15.05.25.05.35 1.4 4.8 2.35 13.3 1.85 18.55.05.05.1.05.1.1 12.6 13.65 55.3 44.8 79.6 61.6 5.25-11.45 12.25-25.55 19.35-39.35l-9.6-4.75s28.55-59.9 51.15-78.55c6.35-6.05 15.5-10.55 27.2-13.4.45-2.15.8-4.55 1.05-7.1.35-3.2.55-6.6.6-10.1-30.75-.35-23.4-31.2-18.9-62.2.4-2.85.95-5.45 1.55-8-.05.1-.1.15-.15.25l-2.3-1.05c1.05-2.25 2.45-3.7 3.9-4.7.55-1.7 1.1-3.3 1.7-4.85.1-3.35.35-7 .95-11.2-4.05-1.1-5.2-3.55-1.3-8.05 5.6-6.5 26.3-10.65 44.35-10.95 12.9-.25 24.4 1.4 28.1 5.5.8-2.6-.45-5.9-1.05-6.95l2.2-1.2c.1.2 2.55 4.8 1.25 8.95-.05.1-.15.2-.2.35 3.9.85 5.25 7.9 5.5 16.25.3 9.1-.8 19.7-1.45 25.15 2.15 2.35 3.2 6 2.05 10.4-.55 2.15-4.55 11.9-12.85 13.8-1.15 17.25-2.15 39.75-2.05 53.1 16.15 1.85 26.95 6.35 34.35 13.25.05.05.1.05.15.1 21.05 14.1 57.05 78.15 57.05 78.15l-12.3 4.2c11.1 27.95 20.85 56.1 23.75 65.55v.1m-22.25 123.2c0-4.2-.25-9.5-.75-15.55-2.7-33.7-11.95-89.6-13.8-99.7-.15-.8-.15-1.55-.2-2.3-1.15-2.15-2.35-4.55-3.6-7.15 3.5 42.2 6.15 84.55 6.4 108.9.05 1.3.05 2.5.05 3.7 0 0-.55 0-1.5.1.35 5.3.7 13.9 1.05 24 1.5-2.95 3.2-5.75 4.5-7.25 2.25-2.55 5.05-4 7.85-4.75"/></g></g><g><path fill="#ffad69" d="M280.11 275.575l-32.594-21.27s-32.395 59.615-48.37 94.495c-24.285-16.815-66.985-47.95-79.59-61.63-.035-.035-.07-.055-.105-.09.495-5.26-.455-13.735-1.84-18.54-.03-.125-.035-.225-.08-.36-.07-.225-.165-.405-.24-.62-.1-.28-.19-.635-.29-.875a41.904 41.904 0 0 0-.655-1.52c-3.35-7.355-8.66-10.295-11.79-20.115-2.18-6.855-8.465-1.105-7.845 3.84 0 0 .935 3.21 1.99 6.3-4.155-1.98-7.745-3.18-10.165-2.365-2.93.985-6.205 15.855-4.8 21.17 1.38 5.23 15.75 22.14 21.13 25.05.39.21.8.325 1.22.39 8.675 12.115 66.025 80.22 89.08 91.98 14.28 7.285 25.005 1.01 28.59-8.27 10.9-17.695 43.885-75.285 56.355-107.57"/></g><g><path fill="#ea3939" d="M284.54 238.945c4.94 24.85-14.92 95.565-14.92 95.565l-60.75-29.815s62.64-131.305 75.67-65.75"/></g><g><path fill="#232323" d="M410.2 565.53c0 .8 0 1.6-.1 2.4-11.45 2.5-23.65 4.15-36.35 4.85-46.7 2.85-100.4-5.9-152.15-23.4 1.8-26.7 4.6-54.55 8.9-73.35l143.1 2.85 11.2.25 21.3.4 1.25.05c1 11.4 2.2 57.55 2.85 85.95"/></g><g><path fill="#ff4e4a" d="M328.465 209.293c39.27 1.295 52.545 14.55 59.315 37.475 7.685 26.03 21.225 183.25 21.225 235.785 0 0-117.52 8.325-182.625-2.345 20.41-68.95 22.62-192.935 23.03-229.87.305-27.715 29.27-42.69 79.055-41.045"/></g><g><path fill="#232323" d="M293.87 145.002c-3.87-2.91-24.05-.27-18.235-41.355 2.115-14.99 16.195-4.985 26.16-2.985 9.965 2 3.63 45.08 3.63 45.08z"/></g><g><path fill="#ffad69" d="M344.12 135.17c-1.674 10.89-5.024 69.81-3.63 83.49 1.396 13.685-64.784 17.595-56.13 2.515 8.66-15.08 2.516-65.065 2.516-65.065z"/></g><g><path fill="#d88344" d="M339.535 136.83l-52.655 19.28s3.555 29.115 1.41 49.61c40.15-3.105 50.455-53.815 51.135-63.58.11-1.84.165-3.615.11-5.31"/></g><g><path fill="#ffad69" d="M269.97 133.317c-4.88 33.635-13.165 67.17 27.605 61.65 40.775-5.52 47.11-57.795 46.99-67.655-.635-52.615-65-60.135-74.595 6.005"/></g><g><path fill="#232323" d="M348.968 91.415c.05-.13.16-.22.205-.35 1.325-4.125-1.115-8.72-1.22-8.915l-2.2 1.185c.02.04 2.02 3.845 1.04 6.94-8.93-9.865-62.875-5.66-72.47 5.485-12.19 14.16 25.3 7.775 46.425 4.2 2.96 12.37 16.37 32.855 20.235 35.765l11.555.745s6.305-42.885-3.57-45.055"/></g><g><path fill="#ffad69" d="M438.99 499.41c2.59-14.39 11.12-102.785 4.215-127.915-.01-.04-.005-.08-.015-.125-4.82-15.73-28.755-83.535-46.085-115.64l-37.345 10.96s31.255 81.57 46.41 110.42c.045.775.045 1.535.195 2.335 2.23 11.9 14.69 87.405 14.55 115.215-2.76.77-5.57 2.22-7.805 4.77-2.845 3.25-7.805 12.585-7.455 16.725.995 11.815 7.56 25.89 12.055 28.215 2.75 1.42 15.71-6.565 18.555-11.27 2.8-4.63 4.96-26.715 3.31-32.605-.11-.405-.38-.73-.585-1.085"/></g><g><path fill="#ff4e4a" d="M374.686 223.49c21.065 14.08 57.025 78.125 57.025 78.125l-64.035 21.875s-48.56-137.14 7.01-100"/></g><g><path fill="#232323" d="M304.303 131.65c.13 1.64-.755 3.046-1.985 3.146-1.23.095-2.33-1.15-2.46-2.79-.135-1.635.755-3.045 1.985-3.14 1.225-.1 2.325 1.145 2.46 2.785"/></g><g><path fill="#232323" d="M278.333 132.34c.13 1.64-.755 3.046-1.985 3.146-1.225.095-2.33-1.15-2.46-2.785-.135-1.64.755-3.05 1.985-3.145 1.225-.1 2.33 1.145 2.46 2.785"/></g><g><path fill="#232323" d="M310.695 122.449c-3.475-5.335-9.455-4.065-9.515-4.055l-.55-2.44c.315-.065 7.745-1.64 12.16 5.13z"/></g><g><path fill="#232323" d="M271.382 125.566l-2.272-1.04c3.373-7.355 10.955-6.88 11.275-6.865l-.175 2.495c-.235-.015-6.186-.33-8.828 5.41"/></g><g><path fill="#232323" d="M295.961 162.62c-1.66 0-2.711-.185-2.751-.195l.455-2.455c.46.085 11.44 1.945 17.559-8.23l2.141 1.29c-5.048 8.39-13.177 9.59-17.404 9.59"/></g><g><path fill="#d88344" d="M276.74 151.22l6.36-21.68 2.395.7-5.405 18.435 8.755-.115.035 2.5z"/></g><g><path fill="#232323" d="M114.76 284.685l-3.27 1.46-29.35-65.855 3.265-1.46z"/></g><g><path fill="#ffad69" d="M334.225 139.44c-3.685 8.3-8.295 16.33 3.27 17.82 11.565 1.496 16.945-11.49 17.6-14.034 3.495-13.57-13.63-20.105-20.87-3.785"/></g><g><path fill="#4d8dff" d="M161.23 0H43.575c-4.1 0-7.425 3.32-7.425 7.42v41.895c0 4.1 3.325 7.425 7.425 7.425h7.165l8.08 10.795c1.795 2.4 5.56 1.685 6.355-1.205l2.62-9.59h93.435c4.1 0 7.42-3.325 7.42-7.425V7.42c0-4.1-3.32-7.42-7.42-7.42"/></g><g/><g clip-path="url(#oksjc)"><path fill="#fff" d="M47.71 13.5h104.035V11H47.71z"/></g><g clip-path="url(#oksjc)"><path fill="#fff" d="M47.71 25.33h68.69v-2.5H47.71z"/></g><g clip-path="url(#oksjc)"><path fill="#fff" d="M47.71 37.16h85.86v-2.5H47.71z"/></g><g clip-path="url(#oksjc)"><path fill="#ff4e4a" d="M133.565 140.19H43.57a7.42 7.42 0 0 0-7.42 7.42v41.895c0 4.1 3.32 7.425 7.42 7.425h7.165l8.08 10.795c1.795 2.4 5.565 1.685 6.355-1.205l2.62-9.59h65.775c4.1 0 7.42-3.325 7.42-7.425V147.61a7.42 7.42 0 0 0-7.42-7.42"/></g><g clip-path="url(#oksjc)"><path fill="#fff" d="M47.71 153.69h47.895v-2.5H47.71z"/></g><g clip-path="url(#oksjc)"><path fill="#fff" d="M105.5 153.69h16.51v-2.5H105.5z"/></g><g clip-path="url(#oksjc)"><path fill="#fff" d="M47.71 165.52h34.025v-2.5H47.71z"/></g><g clip-path="url(#oksjc)"><path fill="#fff" d="M47.71 177.35h65.715v-2.5H47.71z"/></g><g clip-path="url(#oksjc)"><path fill="#ffc84d" d="M103.43 70.06h109.58a7.42 7.42 0 0 1 7.415 7.42v41.9a7.42 7.42 0 0 1-7.416 7.42h-7.17l-8.08 10.8c-1.796 2.395-5.566 1.68-6.351-1.21l-2.626-9.59h-85.351a7.42 7.42 0 0 1-7.421-7.42v-41.9a7.42 7.42 0 0 1 7.42-7.42"/></g><g clip-path="url(#oksjc)"><path fill="#fff" d="M164.94 83.55h43.92v-2.5h-43.92z"/></g><g clip-path="url(#oksjc)"><path fill="#fff" d="M113.43 95.39h95.435v-2.5H113.43z"/></g><g clip-path="url(#oksjc)"><path fill="#fff" d="M161.97 107.22h46.89v-2.5h-46.89z"/></g><g clip-path="url(#oksjc)"><path fill="#fff" d="M132.58 107.22h21.465v-2.5H132.58z"/></g><g clip-path="url(#oksjc)"><path fill="#fff" d="M293.44 348.665c-20.495 0-37.17-16.675-37.17-37.175 0-20.495 16.675-37.17 37.17-37.17 20.5 0 37.175 16.675 37.175 37.17 0 20.5-16.675 37.175-37.175 37.175m0-71.845c-19.115 0-34.67 15.555-34.67 34.67 0 19.12 15.555 34.675 34.67 34.675 19.12 0 34.675-15.555 34.675-34.675 0-19.115-15.555-34.67-34.675-34.67"/></g></g></g></svg>