<svg xmlns="http://www.w3.org/2000/svg" width="542" height="609" viewBox="0 0 542 609"><g><g><g><path fill="#fde6d6" d="M538.649 395.298a182.85 182.85 0 0 1-58.9 105 223.2 223.2 0 0 1-34.5 25c-43.25 26.15-96.85 42-152.65 55l-9.55 2.15a96 96 0 0 1-25.3 2.3c-88.75-3.7-149.2-135.25-168-273.7-16.4-123.25 11.05-262.85 133.95-269.15 46.15-2.3 100 20.7 150 57.7 3.6 2.65 7.2 5.4 10.75 8.2l2.2 1.75c93.35 74.4 169.6 195.05 152 285.75z"/></g><g><path fill="#f5f9fd" d="M103.055 511.347c6.95 14.05 9.5 31.85-4.45 37.55-15.6 6.4-40.5-3.9-47.7-27.35-4.65-15-3.05-35.9 10-43.95 10.65-6.9 33.85 16.55 42.15 33.75z"/></g><g><path fill="#ffad69" d="M484.754 196.25c-6.25-5.45-11.25-13.55-5.95-19 5.3-5.45 19.6-5.9 28 4.05 5.35 6.35 9.05 16.75 5 23.1-3.6 5.4-19.25-1.5-27.05-8.15z"/></g><g><path fill="#d8d5db" d="M159.752 115.538a.55.55 0 0 1-.6-.549.548.548 0 0 1 .55-.648c3.25-.35 6.6-.6 10-.699a.65.65 0 0 1 .6.599.598.598 0 0 1-.6.648c-3.35 0-6.7.3-10 .65zm20-.748a.65.65 0 0 1-.709-1 .65.65 0 0 1 .71-.248c3.3 0 6.7.4 10 .749a.6.6 0 0 1 .55.698.65.65 0 0 1-.55.55c-3.3-.35-6.65-.6-10-.75zm30 3.947c-3.3-.699-6.6-1.347-10-1.846a.649.649 0 0 1-.5-.749.599.599 0 0 1 .7-.499c3.2.55 6.55 1.148 10 1.896a.649.649 0 0 1 .5.749.6.6 0 0 1-.7.45zm-69.5.4a.7.7 0 0 1-.6-.45.649.649 0 0 1 .45-.798c3.15-.848 6.45-1.597 10-2.245a.601.601 0 0 1 .75.449.649.649 0 0 1-.5.748c-3.3.649-6.55 1.397-9.7 2.246zm88.691 4.75a230.533 230.533 0 0 0-9.591-2.745.699.699 0 0 1-.45-.749.649.649 0 0 1 .85-.499c3.146.848 6.394 1.747 9.64 2.795a.6.6 0 1 1 0 1.197zm-107.54 2.048a.7.7 0 0 1-.55-.349.648.648 0 0 1 .3-.848c3.002-1.348 6.105-2.645 9.308-3.793a.602.602 0 0 1 .801.35.648.648 0 0 1-.35.798 126.813 126.813 0 0 0-9.209 3.792zm126.45 4.6c-3.1-1.197-6.25-2.394-9.35-3.492a.648.648 0 0 1-.4-.799.7.7 0 0 1 .8-.349c3.15 1.098 6.3 2.295 9.4 3.493a.6.6 0 1 1 0 1.198zm-143.752 5.4a.55.55 0 0 1-.5-.25.599.599 0 0 1 0-.848c2.748-1.947 5.545-3.794 8.442-5.442a.65.65 0 0 1 .65 1.099c-2.848 1.647-5.695 3.444-8.342 5.342a.6.6 0 0 1-.2.1zm161.86 2.55a251.714 251.714 0 0 0-9.109-4.092.648.648 0 0 1-.3-.848.6.6 0 0 1 .8-.3c3.104 1.348 6.157 2.695 9.16 4.143a.6.6 0 0 1 .3.798.6.6 0 0 1-.5.3zm17.841 9.05a320.458 320.458 0 0 0-8.85-4.642.649.649 0 0 1-.2-.998.6.6 0 0 1 .85-.25c2.9 1.448 5.9 3.045 8.85 4.643a.599.599 0 0 1 0 .848.55.55 0 0 1-.3.4zm-195.1 1.5a.6.6 0 0 1 0-.848c2.347-2.447 4.994-4.994 7.291-6.942a.65.65 0 0 1 .9 0 .65.65 0 0 1 0 .9c-2.448 2.147-4.995 4.444-7.192 6.84a.65.65 0 0 1-.629.06.6.6 0 0 1-.37-.01zm212.55 8.51c-2.8-1.75-5.7-3.45-8.6-5a.617.617 0 1 1 .65-1.05c2.9 1.65 5.8 3.4 8.6 5a.6.6 0 0 1 0 .85.55.55 0 0 1-.35.2zm-225 7.091a.6.6 0 0 1 0-.849c1.9-2.847 3.9-5.544 5.95-8.141a.6.6 0 0 1 .85 0 .6.6 0 0 1 0 .899c-2 2.547-4 4.994-5.85 7.991a.55.55 0 0 1-.6.1zm241.8 3.76l-8.3-5.6a.617.617 0 0 1 .65-1.05c2.833 1.8 5.633 3.65 8.4 5.55a.65.65 0 0 1 0 .85.5.5 0 0 1-.4.25.4.4 0 0 1-.35 0zm16.7 11.64h-.35c-2.65-1.997-5.4-3.994-8.1-5.891a.648.648 0 0 1 .7-1.049c2.75 1.947 5.45 3.945 8.15 5.942a.599.599 0 0 1 0 .849.6.6 0 0 1-.4.15zM66.46 181.53a.599.599 0 0 1 .042-.493c1.4-3.047 2.95-6.044 4.55-8.941a.65.65 0 1 1 1.1.6c-1.6 2.846-3.1 5.844-4.55 8.89a.6.6 0 0 1-.8.3.6.6 0 0 1-.342-.356zm283.592 10.857c-2.6-2.098-5-4.245-7.8-6.242a.648.648 0 0 1 .8-.999c2.55 2.048 5 4.145 7.8 6.292a.599.599 0 0 1 0 .849.7.7 0 0 1-.4.1.55.55 0 0 1-.4 0zm-290.3 8.35a.7.7 0 0 1-.4-.8c1.05-3.246 2.15-6.444 3.35-9.49a.7.7 0 0 1 .8-.35.6.6 0 0 1 .35.799c-1.15 2.997-2.25 6.194-3.3 9.391a.65.65 0 0 1-.8.45zm305.75 4.7c-2.45-2.247-5-4.444-7.55-6.592a.698.698 0 0 1 0-.898.65.65 0 0 1 .9 0l7.55 6.591a.698.698 0 0 1 0 .899.65.65 0 0 1-.7.032.65.65 0 0 1-.2-.032zm14.641 13.75c-2.447-2.347-4.994-4.694-7.241-6.941a.6.6 0 0 1 0-.85.65.65 0 0 1 .899 0c2.397 2.248 4.994 4.595 7.241 6.942a.65.65 0 0 1 0 .9.6.6 0 0 1-.627 0 .5.5 0 0 1-.272-.05zm-325.81.689a.599.599 0 0 1-.08-.488c.65-3.247 1.45-6.544 2.25-9.991a.6.6 0 0 1 .8-.45.65.65 0 0 1 .45.75c-.85 3.197-1.6 6.494-2.3 9.74a.65.65 0 0 1-.7.7.6.6 0 0 1-.42-.261zm339.52 13.662c-2.25-2.448-4.6-4.995-6.9-7.242a.649.649 0 0 1 0-.899.7.7 0 0 1 .9 0c2.3 2.397 4.65 4.994 6.9 7.292a.649.649 0 0 1 0 .898.8.8 0 0 1-.45-.05.55.55 0 0 1-.45 0zm-343.05 5.65c.4-3.347.85-6.694 1.4-9.991a.6.6 0 0 1 .7-.5.55.55 0 0 1 .5.7c-.5 3.197-.95 6.544-1.35 9.991a.65.65 0 0 1-.7.5.65.65 0 0 1-.55-.7zm356.29 9.36l-6.541-7.6a.6.6 0 0 1 0-.85.599.599 0 0 1 .899 0c2.147 2.4 4.344 5 6.541 7.55a.65.65 0 0 1 0 .9.549.549 0 0 1-.4 0 .648.648 0 0 1-.499 0zm-357.34 11.3a.6.6 0 0 1-.6-.65c0-3.35.35-6.7.6-10a.6.6 0 0 1 .65-.6.7.7 0 0 1 .6.7c0 3.25-.45 6.65-.6 10a.65.65 0 0 1-.65.55zm370.54 4.34a.6.6 0 0 1-.5 0 362.17 362.17 0 0 0-6.141-7.891.6.6 0 0 1 0-.85.6.6 0 0 1 .899 0c1.997 2.548 4.094 4.995 6.141 7.892a.65.65 0 0 1 0 .9zm-370.54 15.71a.6.6 0 0 1-.6-.6v-7.05-3a.6.6 0 0 1 .6-.6.6.6 0 0 1 .65.6v10a.6.6 0 0 1-.6.65zm381.45.59c-1.8-2.697-3.7-5.444-5.65-8.24a.6.6 0 0 1 0-.85.65.65 0 0 1 .9 0c2 2.747 3.9 5.544 5.7 8.241.21.244.21.606 0 .85a.5.5 0 0 1-.4 0 .8.8 0 0 1-.55 0zm11.15 17a.55.55 0 0 1-.5-.299c-1.65-2.847-3.4-5.694-5-8.541a.699.699 0 0 1 0-.9.65.65 0 0 1 .85 0c1.8 2.898 3.55 5.745 5 8.592a.6.6 0 0 1 0 .85zm-391.8 2.41a.6.6 0 0 1-.6-.55c0-3.4-.5-6.8-.65-10a.65.65 0 0 1 .6-.65.6.6 0 0 1 .65.6c0 3.25.4 6.6.65 10a.6.6 0 0 1-.6.65zm401.3 15.241a.75.75 0 0 1-.6-.35c-1.4-2.897-2.95-5.894-4.55-8.891a.649.649 0 0 1 0-.85.65.65 0 0 1 .85.25 304.91 304.91 0 0 1 4.6 8.942.65.65 0 0 1-.3.85zm-399.2 4.71a.65.65 0 0 1-.65-.55c-.4-3.3-.8-6.65-1.15-10a.6.6 0 0 1 .55-.7.65.65 0 0 1 .7.55c.35 3.3.75 6.65 1.15 10a.6.6 0 0 1-.55.7zm407.1 13.64a.65.65 0 0 1-.6-.4c-1.2-3.046-2.45-6.143-3.8-9.24a.599.599 0 0 1 .3-.8.65.65 0 0 1 .85.3c1.35 3.097 2.65 6.194 3.8 9.291a.599.599 0 0 1-.35.8zm-404.1 6.16a.6.6 0 0 1-.6-.5c-.6-3.3-1.15-6.65-1.65-10a.65.65 0 0 1 .55-.75.65.65 0 0 1 .7.55c.5 3.3 1.05 6.6 1.6 10a.65.65 0 0 1-.5.75zm410.8 12.85a.6.6 0 0 1-.6-.5c-.9-3.1-1.9-6.35-2.95-9.5a.6.6 0 0 1 .4-.8.6.6 0 0 1 .8.4c1.05 3.2 2.05 6.45 2.95 9.6a.6.6 0 0 1-.45.75zm-406.7 6.791a.6.6 0 0 1-.6-.5c-.75-3.297-1.45-6.594-2.05-9.99a.599.599 0 0 1 .5-.75.6.6 0 0 1 .7.5c.65 3.197 1.35 6.494 2.05 9.99a.599.599 0 0 1-.45.75zm410.75 12.61a.65.65 0 0 1-.65-.5c-.5-3.2-1.1-6.5-1.8-10a.65.65 0 0 1 .45-.75.65.65 0 0 1 .75.5c.75 3.3 1.35 6.6 1.85 10a.6.6 0 0 1-.5.7zm-406.05 7.34a.6.6 0 0 1-.6-.45v-.499c-.85-3.247-1.7-6.494-2.5-9.991a.7.7 0 0 1 .5-.75.7.7 0 0 1 .75.45c.8 3.247 1.6 6.494 2.45 9.692v.5a.65.65 0 0 1-.45.799zm407.75 12.66a.6.6 0 0 1-.6-.6c0-3.3-.25-6.65-.5-10a.6.6 0 0 1 .55-.7.65.65 0 0 1 .7.6c0 3.3.45 6.7.5 10a.65.65 0 0 1-.6.65zm-402.45 6.59a.65.65 0 0 1-.6-.399c-.95-3.197-1.9-6.444-2.8-9.641a.599.599 0 0 1 .45-.75.6.6 0 0 1 .75.4c.9 3.247 1.85 6.444 2.8 9.592a.65.65 0 0 1-.4.799zm401.2 13.461a.55.55 0 0 1-.55-.65c.35-3.25.65-6.6.85-10a.6.6 0 0 1 .65-.6.7.7 0 0 1 .6.65c0 3.4-.5 6.75-.85 10a.65.65 0 0 1-.5.55zm-395 5.64a.7.7 0 0 1-.6-.45c-1.05-3.147-2.1-6.294-3.1-9.49a.65.65 0 0 1 1.2-.4c1 3.197 2.05 6.344 3.1 9.491a.599.599 0 0 1-.4.8zm391.65 13.86a.65.65 0 0 1-.5-.75c.7-3.3 1.35-6.6 1.85-10a.65.65 0 0 1 .75-.5.6.6 0 0 1 .5.7c-.5 3.25-1.15 6.55-1.85 10a.7.7 0 0 1-.45 1zm-385.25 5a.65.65 0 0 1-.6-.4c-1.15-3.1-2.3-6.25-3.4-9.4a.617.617 0 0 1 1.15-.45c1.15 3.15 2.25 6.3 3.45 9.45a.65.65 0 0 1-.4.8zm380 14.44a.65.65 0 0 1-.4-.798c1.1-3.148 2.05-6.345 2.95-9.492a.619.619 0 0 1 1.2.3c-.9 3.197-1.9 6.444-2.95 9.591a.65.65 0 0 1-.6.4zm-372.6 4.2a.55.55 0 0 1-.55-.349c-1.3-3.097-2.55-6.194-3.75-9.291a.599.599 0 0 1 .35-.85.65.65 0 0 1 .8.4 297.52 297.52 0 0 0 3.75 9.242.7.7 0 0 1-.35.849zm364.7 13.452c1.452-2.947 2.804-5.994 4.107-9.091a.6.6 0 0 1 .801-.3.649.649 0 0 1 .351.8c-1.302 3.096-2.655 6.193-4.108 9.14a.652.652 0 0 1-.851.3.649.649 0 0 1-.3-.849zm-356.6 4.95a.6.6 0 0 1-.55-.35 511.46 511.46 0 0 1-4.1-9.192.599.599 0 0 1 .3-.799.6.6 0 0 1 .85.35c1.3 3.047 2.7 6.094 4.05 9.091a.65.65 0 0 1-.3.85zm347.15 13.35h-.3a.6.6 0 0 1 0-.85c1.8-2.797 3.5-5.644 5-8.541a.65.65 0 1 1 1.1.6c-1.65 2.896-3.4 5.794-5 8.59a.7.7 0 0 1-.7.25zm-338.45 4.71a.6.6 0 0 1-.55-.35c-1.55-3-3.05-6.05-4.45-9a.6.6 0 0 1 .3-.8.6.6 0 0 1 .8 0l4.45 9a.65.65 0 0 1-.25.85zm326.3 11.44a.649.649 0 0 1 0-.9c2.1-2.596 4.15-4.994 6.1-7.89a.6.6 0 1 1 .85.849c-1.95 2.647-4 5.344-6.15 7.94a.55.55 0 0 1-.3 0zm-316.8 6.2a.65.65 0 0 1-.55-.3c-1.6-2.847-3.25-5.794-5-8.79a.65.65 0 0 1 1.1-.6c1.6 2.997 3.25 5.944 5 8.741.21.244.21.605 0 .85zm303.3 8.6a.55.55 0 0 1 0-.849c2.35-2.397 4.7-4.994 6.9-7.191a.6.6 0 0 1 .85 0 .649.649 0 0 1 0 .899c-2.2 2.397-4.55 4.994-6.95 7.241a.6.6 0 0 1-.4-.1.45.45 0 0 1-.4 0zm-293 8.5a.7.7 0 0 1-.55-.3 631.459 631.459 0 0 1-5.3-8.49.649.649 0 0 1 0-.85.6.6 0 0 1 .85 0c1.7 2.847 3.5 5.694 5.25 8.492.21.243.21.605 0 .849zm278.548 5a.7.7 0 0 1-.5-.25.6.6 0 0 1 0-.848c2.548-2.147 4.995-4.345 7.542-6.542a.6.6 0 0 1 .85 0 .65.65 0 0 1 0 .899l-7.592 6.542a.649.649 0 0 1-.15.15zm-267.249 11.66a.6.6 0 0 1-.5-.3c-1.95-2.6-3.9-5.35-5.8-8.15a.7.7 0 0 1 0-.9.65.65 0 0 1 .9 0c1.9 2.75 3.85 5.5 5.75 8.15a.6.6 0 0 1 0 .85.65.65 0 0 1-.2.3zm251.35.49a.6.6 0 0 1-.5 0 .599.599 0 0 1 0-.848c2.75-1.997 5.45-3.944 8.05-5.942a.6.6 0 1 1 .85.85c-2.6 1.996-5.3 3.994-8.1 5.94a.5.5 0 0 1-.15-.05zm-16.75 11.051a.55.55 0 0 1-.5-.3.599.599 0 0 1 0-.848c2.9-1.798 5.75-3.595 8.45-5.392a.6.6 0 1 1 .85.848c-2.7 1.798-5.55 3.595-8.45 5.392zm-222.15 4.16a.7.7 0 0 1-.5 0c-2.15-2.45-4.25-5-6.35-7.75a.605.605 0 0 1 .95-.75c2.1 2.65 4.25 5 6.35 7.7a.65.65 0 0 1 0 .9zm205 5.89a.7.7 0 0 1-.55-.35.648.648 0 0 1 .25-.848c2.95-1.597 5.9-3.245 8.7-4.992a.65.65 0 0 1 .85 0 .599.599 0 0 1 0 .848l-8.75 4.993zm-191.2 8.7a.55.55 0 0 1-.4 0 291.327 291.327 0 0 1-7.05-7.191.55.55 0 0 1 0-.849.65.65 0 0 1 .9 0c2.35 2.497 4.7 4.994 7 7.141a.55.55 0 0 1 0 .85.5.5 0 0 1-.45 0zm173.4.51a.6.6 0 0 1-.55-.35.6.6 0 0 1 .3-.85l8.891-4.5a.649.649 0 1 1 .6 1.1c-2.998 1.55-5.945 3.05-8.992 4.5zm-18.15 8.5a.6.6 0 0 1-.55-.4.6.6 0 0 1 .3-.8c3.05-1.4 6.1-2.75 9.1-4.2a.65.65 0 1 1 .5 1.15l-9.1 4.2zm-139.99 4.09a.552.552 0 0 1-.351 0c-2.603-1.997-5.006-4.094-7.809-6.341a.62.62 0 0 1-.075-.874.623.623 0 0 1 .876-.075c2.553 2.197 5.006 4.345 7.759 6.292a.599.599 0 0 1 0 .899.602.602 0 0 1-.5.05zm121.69 3.8a.55.55 0 0 1-.55-.349.648.648 0 0 1 .3-.848 301.85 301.85 0 0 0 9.26-3.892.701.701 0 0 1 .8.349.597.597 0 0 1-.3.798 365.474 365.474 0 0 1-9.26 3.893zm-105 7.04h-.3c-2.9-1.544-5.8-3.288-8.65-4.983a.646.646 0 0 1 0-.847.601.601 0 0 1 .85 0c2.8 1.844 5.7 3.538 8.55 4.984.211.243.211.604 0 .847a.652.652 0 0 1-.45-.05zm86.35.46a.6.6 0 0 1-.55-.398.547.547 0 0 1 .35-.799l9.31-3.692a.651.651 0 0 1 .8.349.648.648 0 0 1-.35.798l-9.31 3.693zm-18.7 7.051a.6.6 0 0 1-.6-.449c-.1-.33.075-.68.4-.798 1.45-.45 2.95-.998 4.45-1.547l5-1.847a.601.601 0 0 1 .8.35.548.548 0 0 1-.35.798l-5 1.896c-1.5.55-3.05 1.098-4.55 1.547zm-49.25.3a94.22 94.22 0 0 1-9.45-3.443.648.648 0 0 1-.35-.798.7.7 0 0 1 .85-.35 91.315 91.315 0 0 0 9.3 3.394.649.649 0 0 1 .45.798.7.7 0 0 1-.8.35zm29.6 3.502a.6.6 0 0 1-.6-.598.548.548 0 0 1 .55-.649 81.851 81.851 0 0 0 10-1.297.65.65 0 0 1 .75.499.598.598 0 0 1-.5.698 84.458 84.458 0 0 1-10 1.347zm-10 0a84.56 84.56 0 0 1-10-1.197.6.6 0 0 1-.5-.749.599.599 0 0 1 .7-.499c3.306.599 6.646.999 10 1.198a.6.6 0 0 1 .6.649.648.648 0 0 1-.8.599z"/></g><g><path fill="#d1cdd3" d="M469.75 395.754v1.65c-1.25 13.95-13.25 43.7-25 70 .4 9.5.7 18 .75 25v3.7h-1.45c.35 6.2.8 16.95 1.15 29.3-43.25 26.15-96.85 42-152.65 55l-9.55 2.15a96 96 0 0 1-25.3 2.3 20.95 20.95 0 0 1-.55-6.4 678.502 678.502 0 0 1 8.8-84.1l-3.1-.45c11.35-38.3 17.05-93.55 20-141.5.35-5.65.65-11.15.9-16.6-7.25 7.4-12.25 12-12.25 12l-15.35-25.25c-18.95 13.7-36.85 25.8-45.6 31.4-7.25 6.8-19.6 7.8-29.3-5-15.7-20.55-37.85-106.8-40.45-121.45a3.85 3.85 0 0 1-1.05-.6c-3.6-5-16.2-32.25-15-37.55 1.2-5.3 7.1-16.75 13.95-18.3-.8-2.45-1.7-5-3-8.55-2.9-7.9-6.35-15.9-1.15-15 5.2.9 17.1 30 19.15 35 .3-2.35.6-4.25.6-4.25 1.6-4.7 10-7.2 8.75 0-1.45 10 2.05 15 1.9 23.25v1.65c.02.3.02.6 0 .9a2.65 2.65 0 0 1 0 .65v.35a60.85 60.85 0 0 1-6.4 17.55c5.45 17.8 30.45 64.35 45 90 8.9-7.4 20-16.2 31.5-25l-1-1.65s59.3-55.45 90-59.65c.45-2.15.75-4.5 1.05-6.95.3-2.45.5-6.6.6-10-22.55-.25-24.65-16.85-22.4-37.95l-3.55-.9 5.25-13.6v-1a3.95 3.95 0 0 1-.95-2.4c0-1.65.45-3.05 1.35-3.1a.55.55 0 0 1 .4 0c0-1.2.4-2.4.55-3.6.4-2.65.9-5 1.4-7.45a10.5 10.5 0 0 0-4.05 0l-.4-2.45a14.25 14.25 0 0 1 5 0 67.3 67.3 0 0 1 7.95-19c-7.2-.5-10.6-2.85-5.6-8.65 7.75-9 44.45-13.5 62.95-9.7 6.5 1.35 10.75 3.7 10.8 7.2v1a10.95 10.95 0 0 0 4.7-3.8l2.1 1.4a14.1 14.1 0 0 1-4.6 4.15l-.75.4c19.8 12.9-8.2 82-8.3 82-.55 11.85-.9 23.55-.85 31.8 17.8 2.05 29.05 7.25 36.5 15.4 20 16.05 50.7 81.9 50.7 81.9l-12.55 3.3c8.95 28.7 16.55 57.5 18.75 67.15a17.05 17.05 0 0 1-.35 4.3z"/></g><g opacity=".3" transform="rotate(180 210.5 154)"><path fill="#4d8dff" d="M42.4 57.25c0-18.557 15.043-33.6 33.6-33.6h267.45c18.557 0 33.6 15.043 33.6 33.6V251.3c0 18.557-15.043 33.6-33.6 33.6H76c-18.557 0-33.6-15.043-33.6-33.6z"/></g><g opacity=".3"><path fill="#4d8dff" d="M354.75 1.25c21.472.028 38.872 17.428 38.9 38.9V268.4c-.028 21.472-17.428 38.872-38.9 38.9H40.15c-21.472-.028-38.872-17.428-38.9-38.9V40.15c.028-21.472 17.428-38.872 38.9-38.9zm28.337 295.531A40 40 0 0 0 394.75 268.4V40.15c0-22.091-17.909-40-40-40H40.15c-22.091 0-40 17.909-40 40v228.4c0 22.091 17.909 40 40 40h314.6a40 40 0 0 0 28.337-11.769z"/></g><g opacity=".3"><g opacity=".3" transform="rotate(180 99 78.5)"><path fill="#4d8dff" d="M70.15 63a5.6 5.6 0 0 1 5.6-5.6h44.7a5.6 5.6 0 0 1 5.6 5.6v32.45a5.6 5.6 0 0 1-5.6 5.6h-44.7a5.6 5.6 0 0 1-5.6-5.6z"/></g><g opacity=".3" transform="rotate(180 172.5 78.5)"><path fill="#4d8dff" d="M144.55 63a5.6 5.6 0 0 1 5.6-5.6h44.7a5.6 5.6 0 0 1 5.6 5.6v32.45a5.6 5.6 0 0 1-5.6 5.6h-44.7a5.6 5.6 0 0 1-5.6-5.6z"/></g><g opacity=".3" transform="rotate(180 247 78.5)"><path fill="#4d8dff" d="M219 63a5.6 5.6 0 0 1 5.6-5.6h44.7a5.6 5.6 0 0 1 5.6 5.6v32.45a5.6 5.6 0 0 1-5.6 5.6h-44.7a5.6 5.6 0 0 1-5.6-5.6z"/></g><g opacity=".3" transform="rotate(180 321.5 78.5)"><path fill="#4d8dff" d="M293.45 63a5.6 5.6 0 0 1 5.6-5.6h44.7a5.6 5.6 0 0 1 5.6 5.6v32.45a5.6 5.6 0 0 1-5.6 5.6h-44.7a5.6 5.6 0 0 1-5.6-5.6z"/></g></g><g opacity=".3"><g opacity=".3" transform="rotate(180 99 154.5)"><path fill="#4d8dff" d="M70.15 138.05a5.6 5.6 0 0 1 5.6-5.6h44.7a5.6 5.6 0 0 1 5.6 5.6v32.45a5.6 5.6 0 0 1-5.6 5.6h-44.7a5.6 5.6 0 0 1-5.6-5.6z"/></g><g opacity=".3" transform="rotate(180 172.5 154.5)"><path fill="#4d8dff" d="M144.55 138.05a5.6 5.6 0 0 1 5.6-5.6h44.7a5.6 5.6 0 0 1 5.6 5.6v32.45a5.6 5.6 0 0 1-5.6 5.6h-44.7a5.6 5.6 0 0 1-5.6-5.6z"/></g><g opacity=".3" transform="rotate(180 247 154.5)"><path fill="#4d8dff" d="M219 138.05a5.6 5.6 0 0 1 5.6-5.6h44.7a5.6 5.6 0 0 1 5.6 5.6v32.45a5.6 5.6 0 0 1-5.6 5.6h-44.7a5.6 5.6 0 0 1-5.6-5.6z"/></g><g opacity=".3" transform="rotate(180 321.5 154.5)"><path fill="#4d8dff" d="M293.45 138.05a5.6 5.6 0 0 1 5.6-5.6h44.7a5.6 5.6 0 0 1 5.6 5.6v32.45a5.6 5.6 0 0 1-5.6 5.6h-44.7a5.6 5.6 0 0 1-5.6-5.6z"/></g></g><g opacity=".3"><g opacity=".3" transform="rotate(180 99 229.5)"><path fill="#4d8dff" d="M70.15 213.05a5.6 5.6 0 0 1 5.6-5.6h44.7a5.6 5.6 0 0 1 5.6 5.6v32.45a5.6 5.6 0 0 1-5.6 5.6h-44.7a5.6 5.6 0 0 1-5.6-5.6z"/></g><g opacity=".3" transform="rotate(180 172.5 229.5)"><path fill="#4d8dff" d="M144.55 213.05a5.6 5.6 0 0 1 5.6-5.6h44.7a5.6 5.6 0 0 1 5.6 5.6v32.45a5.6 5.6 0 0 1-5.6 5.6h-44.7a5.6 5.6 0 0 1-5.6-5.6z"/></g><g opacity=".3" transform="rotate(180 247 229.5)"><path fill="#4d8dff" d="M219 213.05a5.6 5.6 0 0 1 5.6-5.6h44.7a5.6 5.6 0 0 1 5.6 5.6v32.45a5.6 5.6 0 0 1-5.6 5.6h-44.7a5.6 5.6 0 0 1-5.6-5.6z"/></g><g opacity=".3" transform="rotate(180 321.5 229.5)"><path fill="#4d8dff" d="M293.45 213.05a5.6 5.6 0 0 1 5.6-5.6h44.7a5.6 5.6 0 0 1 5.6 5.6v32.45a5.6 5.6 0 0 1-5.6 5.6h-44.7a5.6 5.6 0 0 1-5.6-5.6z"/></g></g><g transform="rotate(180 254 72)"><path fill="#4d8dff" d="M226.1 55.9a5.6 5.6 0 0 1 5.6-5.6h44.7a5.6 5.6 0 0 1 5.6 5.6v32.45a5.6 5.6 0 0 1-5.6 5.6h-44.7a5.6 5.6 0 0 1-5.6-5.6z"/></g><g transform="rotate(180 254 222)"><path fill="#ff4e4a" d="M226.1 205.95a5.6 5.6 0 0 1 5.6-5.6h44.7a5.6 5.6 0 0 1 5.6 5.6v32.45a5.6 5.6 0 0 1-5.6 5.6h-44.7a5.6 5.6 0 0 1-5.6-5.6z"/></g><g transform="rotate(180 105.5 147)"><path fill="#ffc84d" d="M77.2 130.95a5.6 5.6 0 0 1 5.6-5.6h44.7a5.6 5.6 0 0 1 5.6 5.6v32.45a5.6 5.6 0 0 1-5.6 5.6H82.8a5.6 5.6 0 0 1-5.6-5.6z"/></g><g><path fill="#ffad69" d="M416.103 148.75c-1.7 10.9-5 70-3.65 83.5s-65 17.6-56.15 2.55c8.85-15.05 2.55-65 2.55-65z"/></g><g><path fill="#d88344" d="M411.5 150.45l-52.65 19.25a273.5 273.5 0 0 1 1.4 49.65c21.7-8.95 16.9-27.15 16.9-36.95 0-8.9 34.4-30.25 34.35-31.95z"/></g><g><path fill="#d88344" d="M342.1 152.7l-8.2 17.5 10 4.05-1.8-21.55z"/></g><g><path fill="#ffad69" d="M341.952 146.904c-5 33.65-13.2 67.2 27.6 61.65 40.8-5.55 47.1-57.75 47-67.65-.65-52.6-65-60.1-74.6 6z"/></g><g><path fill="#232323" d="M421.504 110.096a15.55 15.55 0 0 0 5.35-4.55l-2.1-1.4a11.35 11.35 0 0 1-5 3.8 6.8 6.8 0 0 0 0-1.05c0-13.6-63.3-9.7-73.75 2.45-6.2 7.2.4 9.1 11.1 8.75a5 5 0 0 0-1.7 2.4c-7.05 34.55 26.25 68.55 30 71.45h27.2s28.5-69.15 8.9-81.85z"/></g><g><path fill="#ffad69" d="M505.5 391.5c-3.6-16.05-22.35-85.5-37.25-118.8l-38.05 8.1s24.55 82.1 37.6 112.75c-3.05 16.5-18.45 93.25-27.95 114.7-4.2 10 11.7 13.85 15.55 9.05 3.85-4.8 47.55-92.6 50-120v-1.65c.25-1.37.283-2.77.1-4.15z"/></g><g><path fill="#e5aa33" d="M448.355 238.85c20 15.65 50.95 82.2 50.95 82.2l-65.5 17s-38.1-140.4 14.55-99.2z"/></g><g><path fill="#232323" d="M479.747 500.35a223.2 223.2 0 0 1-34.5 25c-43.25 26.15-96.85 42-152.65 55-.05-.649-.05-1.301 0-1.95 1.8-30.95 5-66.3 10-88.75l143.05 2.85 33.8.7c0 1.7.3 4.1.3 7.15z"/></g><g><path fill="#ffc84d" d="M400.45 222.903c39.25 1.3 52.55 14.55 59.3 37.5 7.7 26 21.25 183.25 21.25 235.75 0 0-117.55 8.35-182.65-2.35 20.4-68.95 22.6-192.9 23.05-230 .3-27.55 29.25-42.55 79.05-40.9z"/></g><g><path fill="#fff" d="M413.95 232.2a1.25 1.25 0 0 1 1.05.55 1.15 1.15 0 0 1 0 1.2l-5.7 14.15a1.2 1.2 0 0 1-1 .8 1.25 1.25 0 0 1-1.15-.5l-10.65-14.2a1.2 1.2 0 0 1 0-1.3 1.25 1.25 0 0 1 1.15-.7zm-5.05 19a3.75 3.75 0 0 0 3-2.3l5.7-14.2a3.8 3.8 0 0 0-3.5-5h-16.35a3.75 3.75 0 0 0-3 6l10.55 14.2a3.7 3.7 0 0 0 3 1.5z"/></g><g/><g/><g><path fill="#e5aa33" d="M321.25 272.952c-.3 18.15-1 47.1-2.95 79.45 16.65-20 33-43.65 33.95-61.4 1.35-24.4-12.5-25.9-31-18.05z"/></g><g><path fill="#ffad69" d="M343.401 281.398l-20-33.25s-55 39.65-84.55 64.2c-14.6-25.7-39.55-72.25-45-90a60 60 0 0 0 6.35-17.5.7.7 0 0 0 0-.35v-.65c.022-.3.022-.6 0-.9v-1.7c0-8.05-3.35-13-1.9-23.2 1-7.15-7.15-4.7-8.75 0l-.65 4.2c-2.05-5-14.4-34.35-19.1-35-4.7-.65-1.75 7.25 1.15 15 1.25 3.45 2.2 6.15 3 8.55-6.9 1.6-13 13.4-13.95 18.35-.95 4.95 11.55 32.55 15 37.55.268.334.589.621.95.85 2.55 14.7 25 100.9 40.4 121.5 9.7 12.75 22.1 11.75 29.35 5 17.8-11.35 72.5-48.95 97.7-72.65z"/></g><g><path fill="#ffc84d" d="M377.15 248.146c-2 36.7-70 99.65-70 99.65l-37.9-62s111.6-104.4 107.9-37.65z"/></g><g><path fill="#ffad69" d="M356.147 157.302c-1.5 8.8-3.7 17.55 4.55 16.9 8.25-.65 10.35-14.35 10.5-16.95.7-14-12.1-17.35-15.05.05z"/></g></g></g></svg>